<?xml version="1.0" encoding="utf-8"?>
<!-- Generator: Adobe Illustrator 19.0.0, SVG Export Plug-In . SVG Version: 6.00 Build 0)  -->
<svg version="1.1" id="Layer_1" xmlns="http://www.w3.org/2000/svg" xmlns:xlink="http://www.w3.org/1999/xlink" x="0px" y="0px"
	 viewBox="0 0 612 792" style="enable-background:new 0 0 612 792;" xml:space="preserve">
<style type="text/css">
	.st0{fill-rule:evenodd;clip-rule:evenodd;fill:#A38F84;}
	.st1{fill:#FFFFFF;}
	.st2{fill-rule:evenodd;clip-rule:evenodd;fill:#FFFFFF;}
	.st3{fill-rule:evenodd;clip-rule:evenodd;fill:#D14841;}
	.st4{fill-rule:evenodd;clip-rule:evenodd;fill:#EFEFEF;}
	.st5{fill-rule:evenodd;clip-rule:evenodd;fill:#FAC51D;}
	.st6{fill-rule:evenodd;clip-rule:evenodd;fill:#B8322F;}
	.st7{fill-rule:evenodd;clip-rule:evenodd;fill:#CCCCCC;}
	.st8{fill-rule:evenodd;clip-rule:evenodd;fill:#F9A027;}
	.st9{fill:#FAC51D;}
	.st10{fill:none;stroke:#FAC51D;stroke-width:1.4173;stroke-miterlimit:22.9256;}
</style>
<g>
	<polygon class="st0" points="138,279 474,279 474,514.2 138,514.2 138,279 	"/>
	<path class="st1" d="M262.7,487.9l1.4,0.4c-0.2,0.8-0.6,1.3-1,1.7c-0.5,0.4-1.1,0.6-1.9,0.6c-0.9,0-1.7-0.3-2.3-1
		c-0.6-0.6-0.9-1.5-0.9-2.6c0-1.2,0.3-2.1,0.9-2.7c0.6-0.6,1.4-1,2.4-1c0.9,0,1.6,0.3,2.1,0.8c0.3,0.3,0.6,0.7,0.7,1.3l-1.4,0.3
		c-0.1-0.4-0.3-0.6-0.5-0.9c-0.3-0.2-0.6-0.3-1-0.3c-0.5,0-0.9,0.2-1.3,0.6c-0.3,0.4-0.5,1-0.5,1.8c0,0.9,0.2,1.5,0.5,1.9
		c0.3,0.4,0.7,0.6,1.2,0.6c0.4,0,0.7-0.1,1-0.4C262.4,488.8,262.6,488.4,262.7,487.9L262.7,487.9z"/>
	<polygon class="st1" points="265.3,490.5 265.3,483.5 266.8,483.5 266.8,489.3 270.3,489.3 270.3,490.5 265.3,490.5 	"/>
	<path class="st1" d="M271,487c0-0.7,0.1-1.3,0.3-1.8c0.2-0.4,0.4-0.7,0.7-1c0.3-0.3,0.6-0.5,0.9-0.6c0.4-0.2,0.9-0.3,1.5-0.3
		c1,0,1.9,0.3,2.5,1c0.6,0.6,0.9,1.5,0.9,2.7c0,1.1-0.3,2-0.9,2.7c-0.6,0.6-1.4,1-2.5,1c-1,0-1.9-0.3-2.5-1
		C271.3,489,271,488.1,271,487L271,487z M272.4,487c0,0.8,0.2,1.4,0.5,1.8c0.4,0.4,0.8,0.6,1.4,0.6c0.6,0,1-0.2,1.4-0.6
		c0.4-0.4,0.5-1,0.5-1.8c0-0.8-0.2-1.4-0.5-1.8c-0.4-0.4-0.8-0.6-1.4-0.6c-0.6,0-1.1,0.2-1.4,0.6C272.6,485.6,272.4,486.2,272.4,487
		L272.4,487z"/>
	<path class="st1" d="M278.9,483.5h1.4v3.8c0,0.6,0,1,0.1,1.2c0.1,0.3,0.2,0.5,0.4,0.7c0.2,0.2,0.5,0.3,0.9,0.3
		c0.4,0,0.7-0.1,0.9-0.2c0.2-0.2,0.3-0.4,0.4-0.6c0-0.2,0.1-0.6,0.1-1.2v-3.9h1.4v3.7c0,0.8,0,1.4-0.1,1.8c-0.1,0.3-0.2,0.6-0.4,0.9
		c-0.2,0.2-0.5,0.4-0.8,0.6c-0.3,0.1-0.8,0.2-1.3,0.2c-0.7,0-1.2-0.1-1.5-0.2c-0.3-0.2-0.6-0.4-0.8-0.6c-0.2-0.2-0.3-0.5-0.4-0.8
		c-0.1-0.4-0.1-1-0.1-1.8V483.5L278.9,483.5z"/>
	<path class="st1" d="M285.9,483.5h2.6c0.6,0,1,0,1.3,0.1c0.4,0.1,0.8,0.3,1.1,0.6c0.3,0.3,0.5,0.7,0.7,1.1c0.2,0.4,0.2,1,0.2,1.7
		c0,0.6-0.1,1.1-0.2,1.5c-0.2,0.5-0.4,0.9-0.7,1.2c-0.2,0.2-0.6,0.4-1,0.6c-0.3,0.1-0.7,0.1-1.2,0.1h-2.7V483.5L285.9,483.5z
		 M287.3,484.7v4.6h1c0.4,0,0.7,0,0.8-0.1c0.2-0.1,0.4-0.2,0.6-0.3c0.2-0.1,0.3-0.4,0.4-0.7c0.1-0.3,0.1-0.7,0.1-1.3s0-1-0.1-1.2
		c-0.1-0.3-0.2-0.5-0.4-0.7c-0.2-0.2-0.4-0.3-0.7-0.3c-0.2,0-0.6-0.1-1.2-0.1H287.3L287.3,484.7z"/>
	<path class="st1" d="M300.7,488l0.9,0.2c-0.2,0.8-0.5,1.3-1,1.7c-0.5,0.4-1.1,0.6-1.8,0.6c-0.8,0-1.4-0.2-1.8-0.5
		c-0.5-0.3-0.8-0.8-1.1-1.3c-0.2-0.6-0.4-1.2-0.4-1.9c0-0.7,0.1-1.4,0.4-1.9c0.3-0.5,0.7-1,1.2-1.2c0.5-0.3,1.1-0.4,1.7-0.4
		c0.7,0,1.3,0.2,1.8,0.5c0.5,0.4,0.8,0.9,1,1.5l-0.9,0.2c-0.2-0.5-0.4-0.9-0.7-1.1c-0.3-0.2-0.7-0.3-1.2-0.3c-0.5,0-1,0.1-1.3,0.4
		c-0.4,0.3-0.6,0.6-0.8,1c-0.1,0.4-0.2,0.9-0.2,1.3c0,0.6,0.1,1.1,0.3,1.6c0.2,0.4,0.4,0.8,0.8,1c0.4,0.2,0.8,0.3,1.2,0.3
		c0.5,0,1-0.2,1.3-0.4C300.3,489,300.6,488.6,300.7,488L300.7,488z"/>
	<path class="st1" d="M302.5,487.1c0-1.2,0.3-2.1,0.9-2.7c0.6-0.7,1.4-1,2.4-1c0.6,0,1.2,0.2,1.7,0.5c0.5,0.3,0.9,0.7,1.2,1.3
		c0.3,0.6,0.4,1.2,0.4,1.9c0,0.7-0.1,1.3-0.4,1.9c-0.3,0.6-0.7,1-1.2,1.3c-0.5,0.3-1.1,0.4-1.7,0.4c-0.7,0-1.2-0.2-1.8-0.5
		c-0.5-0.3-0.9-0.8-1.2-1.3C302.6,488.3,302.5,487.7,302.5,487.1L302.5,487.1z M303.4,487.1c0,0.8,0.2,1.5,0.7,2
		c0.5,0.5,1,0.7,1.7,0.7c0.7,0,1.3-0.2,1.7-0.7c0.4-0.5,0.7-1.2,0.7-2.1c0-0.6-0.1-1.1-0.3-1.5c-0.2-0.4-0.5-0.8-0.8-1
		c-0.4-0.2-0.8-0.3-1.2-0.3c-0.7,0-1.2,0.2-1.7,0.7C303.7,485.3,303.4,486,303.4,487.1L303.4,487.1z"/>
	<path class="st1" d="M310.3,490.5v-7h1.4l1.7,4.9c0.2,0.5,0.3,0.8,0.3,1c0.1-0.3,0.2-0.6,0.4-1.1l1.7-4.9h1.2v7h-0.9v-5.8l-2,5.8
		h-0.8l-2-6v6H310.3L310.3,490.5z"/>
	<path class="st1" d="M318.5,490.5v-7h2.6c0.5,0,0.8,0,1.1,0.1c0.3,0.1,0.6,0.2,0.9,0.3c0.2,0.2,0.4,0.4,0.6,0.7
		c0.1,0.3,0.2,0.6,0.2,1c0,0.6-0.2,1.1-0.6,1.5c-0.4,0.4-1.1,0.6-2.1,0.6h-1.8v2.9H318.5L318.5,490.5z M319.4,486.8h1.8
		c0.6,0,1-0.1,1.3-0.3c0.3-0.2,0.4-0.5,0.4-0.9c0-0.3-0.1-0.5-0.2-0.8c-0.1-0.2-0.3-0.3-0.6-0.4c-0.2,0-0.4-0.1-0.9-0.1h-1.8V486.8
		L319.4,486.8z"/>
	<path class="st1" d="M329.6,483.5h0.9v4c0,0.7-0.1,1.3-0.2,1.7c-0.2,0.4-0.4,0.7-0.9,1c-0.4,0.3-1,0.4-1.6,0.4
		c-0.7,0-1.2-0.1-1.6-0.3c-0.4-0.2-0.7-0.6-0.9-1c-0.2-0.4-0.3-1-0.3-1.8v-4h0.9v4c0,0.6,0.1,1.1,0.2,1.3c0.1,0.3,0.3,0.5,0.6,0.7
		c0.3,0.2,0.6,0.2,1,0.2c0.7,0,1.2-0.2,1.4-0.5c0.3-0.3,0.4-0.9,0.4-1.8V483.5L329.6,483.5z"/>
	<polygon class="st1" points="333.8,490.5 333.8,484.3 331.5,484.3 331.5,483.5 337.1,483.5 337.1,484.3 334.8,484.3 334.8,490.5 
		333.8,490.5 	"/>
	<polygon class="st1" points="338.2,490.5 338.2,483.5 339.1,483.5 339.1,490.5 338.2,490.5 	"/>
	<polygon class="st1" points="340.7,490.5 340.7,483.5 341.7,483.5 345.3,489 345.3,483.5 346.2,483.5 346.2,490.5 345.3,490.5 
		341.6,485 341.6,490.5 340.7,490.5 	"/>
	<path class="st1" d="M351,487.7v-0.8h3v2.6c-0.5,0.4-0.9,0.6-1.4,0.8c-0.5,0.2-1,0.3-1.5,0.3c-0.7,0-1.3-0.1-1.9-0.4
		c-0.6-0.3-1-0.7-1.3-1.3c-0.3-0.6-0.4-1.2-0.4-1.9c0-0.7,0.1-1.3,0.4-1.9c0.3-0.6,0.7-1,1.2-1.3c0.5-0.3,1.1-0.4,1.8-0.4
		c0.5,0,1,0.1,1.4,0.2c0.4,0.2,0.7,0.4,1,0.7c0.2,0.3,0.4,0.7,0.5,1.1l-0.8,0.2c-0.1-0.4-0.2-0.6-0.4-0.8c-0.2-0.2-0.4-0.4-0.7-0.5
		c-0.3-0.1-0.6-0.2-1-0.2c-0.4,0-0.8,0.1-1.1,0.2c-0.3,0.1-0.6,0.3-0.7,0.5c-0.2,0.2-0.3,0.4-0.4,0.7c-0.2,0.4-0.3,0.9-0.3,1.4
		c0,0.6,0.1,1.1,0.3,1.6c0.2,0.4,0.5,0.7,0.9,0.9c0.4,0.2,0.8,0.3,1.3,0.3c0.4,0,0.8-0.1,1.2-0.2c0.4-0.2,0.7-0.3,0.9-0.5v-1.3H351
		L351,487.7z"/>
	<path class="st2" d="M258.4,390.8h95.7c0.8,0,1.4,0.6,1.4,1.4v68.8c0,0.8-0.6,1.4-1.4,1.4h-95.7c-0.8,0-1.4-0.6-1.4-1.4v-68.8
		C256.9,391.5,257.6,390.8,258.4,390.8L258.4,390.8z"/>
	<polygon class="st3" points="259.5,396 353,396 353,458.4 259.5,458.4 259.5,396 	"/>
	<path class="st4" d="M368.9,453v2.3c0,4-4.2,7.3-9.3,7.3H252.8c-5.1,0-9.3-3.3-9.3-7.3V453H368.9L368.9,453z"/>
	<path class="st5" d="M306.2,392.4c0.7,0,1.2,0.5,1.2,1.2c0,0.7-0.5,1.2-1.2,1.2c-0.7,0-1.2-0.5-1.2-1.2
		C305,392.9,305.6,392.4,306.2,392.4L306.2,392.4z"/>
	<path class="st6" d="M306.2,393.2c0.2,0,0.4,0.2,0.4,0.4c0,0.2-0.2,0.4-0.4,0.4c-0.2,0-0.4-0.2-0.4-0.4
		C305.8,393.3,306,393.2,306.2,393.2L306.2,393.2z"/>
	<path class="st3" d="M276.3,392.9h5.9c0.2,0,0.3,0.2,0.3,0.3l0,0c0,0.2-0.2,0.3-0.3,0.3h-5.9c-0.2,0-0.3-0.2-0.3-0.3l0,0
		C276,393.1,276.1,392.9,276.3,392.9L276.3,392.9z"/>
	<path class="st3" d="M330.3,392.9h5.9c0.2,0,0.3,0.2,0.3,0.3l0,0c0,0.2-0.2,0.3-0.3,0.3h-5.9c-0.2,0-0.3-0.2-0.3-0.3l0,0
		C329.9,393.1,330.1,392.9,330.3,392.9L330.3,392.9z"/>
	<path class="st7" d="M302.9,456.6h6.7c0.8,0,1.5,0.7,1.5,1.5v4.1c0,0.1,0,0.2,0,0.3h-9.7c0-0.1,0-0.2,0-0.3v-4.1
		C301.3,457.3,302,456.6,302.9,456.6L302.9,456.6z"/>
	<path class="st5" d="M303.9,458.4c0.9,0,1.6,0.7,1.6,1.6c0,0.9-0.7,1.6-1.6,1.6c-0.9,0-1.6-0.7-1.6-1.6
		C302.3,459.1,303,458.4,303.9,458.4L303.9,458.4z"/>
	<path class="st5" d="M308.5,458.4c0.9,0,1.6,0.7,1.6,1.6c0,0.9-0.7,1.6-1.6,1.6s-1.6-0.7-1.6-1.6
		C306.9,459.1,307.6,458.4,308.5,458.4L308.5,458.4z"/>
	<path class="st8" d="M303.9,458.7c0.8,0,1.4,0.6,1.4,1.4c0,0.8-0.6,1.4-1.4,1.4c-0.8,0-1.4-0.6-1.4-1.4
		C302.6,459.3,303.2,458.7,303.9,458.7L303.9,458.7z"/>
	<path class="st3" d="M303.9,459.4c0.3,0,0.6,0.3,0.6,0.6s-0.3,0.6-0.6,0.6s-0.6-0.3-0.6-0.6S303.6,459.4,303.9,459.4L303.9,459.4z"
		/>
	<path class="st8" d="M308.5,458.7c0.8,0,1.4,0.6,1.4,1.4c0,0.8-0.6,1.4-1.4,1.4c-0.8,0-1.4-0.6-1.4-1.4
		C307.1,459.3,307.8,458.7,308.5,458.7L308.5,458.7z"/>
	<path class="st3" d="M308.5,459.4c0.3,0,0.6,0.3,0.6,0.6s-0.3,0.6-0.6,0.6s-0.6-0.3-0.6-0.6S308.2,459.4,308.5,459.4L308.5,459.4z"
		/>
	<polygon class="st1" points="321.2,438.2 321.2,438.2 321.1,438.2 321.2,438.2 321.2,438.2 	"/>
	<polygon class="st1" points="299.2,426.2 298.9,426.2 299.2,426.2 299.2,426.2 	"/>
	<path class="st1" d="M295.9,435.8c0.9,0.6,1.9,1.1,3,1.4c1.2,0.4,2.6,0.6,4,0.6c1.1,0,2.1-0.1,3.1-0.4l1.1,2.6
		c-1.3,0.4-2.7,0.6-4.2,0.6c-1.7,0-3.3-0.3-4.8-0.8c-0.8-0.2-1.5-0.5-2.2-0.9L295.9,435.8L295.9,435.8z"/>
	<path class="st1" d="M289.5,421.1c-1.9,0.1-3.7,1-4.9,2.3l0,0c-1.3,1.4-2.2,3.2-2.2,5.3c0,2.1,0.8,4,2.2,5.4
		c1.4,1.4,3.3,2.2,5.4,2.2c0.7,0,1.3-0.1,2-0.3c0.4-0.1,0.8-0.3,1.2-0.4l-0.1,3c-0.1,0-0.3,0.1-0.4,0.1c-0.9,0.2-1.8,0.4-2.7,0.4
		c-2.9,0-5.5-1.2-7.3-3c-1.9-1.9-3-4.5-3-7.3c0-2.8,1.1-5.4,3-7.3h0c1.4-1.4,3.2-2.4,5.1-2.9L289.5,421.1L289.5,421.1z"/>
	<path class="st1" d="M309.9,414.5c-0.9-0.6-2-1.1-3-1.5c-1.3-0.4-2.6-0.6-4-0.6c-2.6,0-5.1,0.8-7.1,2.1c-2,1.3-3.6,3.2-4.6,5.4
		l-1.8-2.6c1.2-2.1,2.8-3.8,4.8-5.2c2.5-1.7,5.4-2.6,8.6-2.6c1.7,0,3.3,0.3,4.9,0.8c0.7,0.2,1.5,0.5,2.2,0.9V414.5L309.9,414.5z"/>
	<path class="st1" d="M318.6,410c3.9,0,7.5,1.6,10,4.2c2.6,2.6,4.2,6.1,4.2,10c0,3.9-1.6,7.5-4.2,10c-2,2-4.6,3.4-7.5,3.9l0,0l0,0h0
		l0,0l0,0l0,0l0,0l0,0l0,0l0,0l0,0l0,0l0,0l0,0l0,0l0,0l0,0l0,0l0,0l0,0l0,0l0,0l0,0l0,0l0,0l0,0l0,0l0,0l0,0l0,0l0,0l0,0l0,0l0,0
		l0,0l0,0l0,0l0,0l0,0l0,0l0,0l0,0l0,0l0,0l0,0l0,0l0,0l0,0l0,0l0,0l0,0l0,0l0,0l0,0l0,0l0,0l0,0l0,0l0,0l0,0l0,0l0,0l0,0l0,0l0,0
		l0,0l0,0l0,0l0,0l0,0l0,0l0,0l0,0l0,0l0,0l0,0l0,0l0,0l0,0l0,0l0,0l0,0l0,0h0l0,0l0,0l0,0l0,0l0,0l0,0l0,0l0,0l0,0l-0.1,0l0,0l0,0
		l0,0l-0.1,0l-0.1,0l0,0l0,0l-0.1,0l0,0l0,0l-0.1,0l0,0l-0.1,0l0,0l0,0l-0.1,0l0,0l0,0l-0.1,0l-0.1,0l-0.1,0l-0.1,0l-0.1,0l-0.1,0
		l-0.1,0l-0.1,0l-0.1,0l-0.1,0l-0.1,0l-0.1,0l-0.1,0l-0.1,0l-0.1,0l-0.1,0l-0.1,0l-0.1,0l-0.1,0l-0.1,0l-0.1,0l-0.1,0l-0.1,0l-0.1,0
		l-0.1,0l-0.1,0l-0.1,0l-0.1,0l-0.1,0l-0.1,0l-0.1,0l-0.1,0l-0.1,0l-0.1,0l-0.1,0l-0.1,0l-0.1,0l-0.1,0l-0.1,0l-0.1,0l-0.1,0l-0.1,0
		l-0.1,0l-0.1,0l-0.1,0l-0.1,0l-0.1,0l-0.1,0l-0.1,0l-0.1,0l-0.1,0l-0.1,0l-0.1,0l-0.1,0l-0.1,0l-0.1,0l-0.1,0l-0.1,0l-0.1,0l-0.1,0
		l-0.1,0l-0.1,0l-0.1,0l-0.1,0l-0.1,0l-0.1,0l-0.1,0l-0.1,0l-0.1,0l-0.1,0l-0.1,0l-0.1,0l-0.1,0l-0.1,0l-0.1,0l-0.1,0l-0.1,0l-0.1,0
		l-0.1,0l-0.1,0l-0.1,0l-0.1,0l-0.1,0l-0.1,0l-0.1,0l-0.1,0l-0.1,0l-0.1,0l-0.1,0l-0.1,0l-0.1,0l-0.1,0l-0.1,0l-0.1,0l-0.1,0l-0.1,0
		l-0.1,0l-0.1,0l-0.1,0l-0.1,0l-0.1,0l-0.1,0l-0.1,0l-0.1,0l-0.1,0l-0.1,0l-0.1,0l-0.1,0l-0.1,0l-0.1-0.1l-0.1,0l-0.1,0l-0.1-0.1
		l-0.1-0.1l-0.1-0.1l-0.1-0.1l-0.1-0.1l-0.1-0.1l-0.1-0.1l-0.1-0.1l-0.1-0.1l-0.1-0.1l-0.1-0.1l-0.1-0.1l-0.1-0.1l-0.1-0.1l-0.1-0.1
		l-0.1-0.1l-0.1-0.1l-0.1-0.1l-0.1-0.1l-0.1-0.1l-0.1-0.1l-0.1-0.1l-0.1-0.1l-0.1-0.1l-0.1-0.1l-0.1-0.1l-0.1-0.1l-0.1-0.1l-0.1-0.1
		l-0.1-0.1l0-0.1l-0.1-0.1l-0.1-0.1l0-0.1l-0.1-0.1l0-0.1l0-0.1l0-0.1l0-0.1l0-0.1l0-0.1l0-0.1l0-0.1l0-0.1l0-0.1l0-0.1l0-0.1l0-0.1
		l0-0.1l0-0.1l0-0.1l0-0.1l0-0.1l0-0.1l0-0.1l0-0.1l0-0.1l0-0.1l0-0.1l0-0.1l0-0.1l0-0.1l0-0.1l0-0.1l0-0.1l0-0.1l0-0.1l0-0.1l0-0.1
		l0-0.1l0-0.1l0-0.1l0-0.1l0-0.1l0-0.1l0-0.1l0-0.1l0-0.1l0-0.1l0-0.1l0-0.1l0,0l0-0.1l0,0l0-0.1l0,0l0,0l0-0.1l0-0.1l0,0l0,0l0,0
		l0,0l0-0.1l0-0.1l0,0l0,0l0,0l0,0l0,0l0,0l0-0.1l0,0l0,0l0-0.1l0,0l0,0l0,0l0,0l0,0l0,0l0,0l0,0l0,0l0,0l0,0l0,0l0,0l0,0l0,0l0,0
		l0,0l0,0l0,0l0,0l0,0l0,0l0,0l0,0l0,0l0,0l0,0l0,0l0,0l0,0l0,0l0,0l0,0l0,0l0,0l0,0l0,0l0,0l0,0l0,0l0,0l0,0l0,0l0,0l0,0l0,0l0,0
		l0,0l0,0l0,0l0,0l0,0l0,0l0,0l0,0l0,0l0,0l0,0l0,0l0,0l0,0l0,0l0,0l0,0l0,0l0,0l0,0l0,0l0,0l0,0l0,0l0,0l0,0l0,0l0,0l0,0l0,0l0,0
		l0,0l0,0l0,0l0,0l0,0h2.9l0,0l0,0l0,0l0,0l0,0l0,0l0,0l0,0l0,0l0,0l0,0l0,0l0,0l0,0l0,0l0,0l0,0l0,0l0,0l0,0l0,0l0,0l0,0l0,0l0,0
		l0,0l0,0l0,0l0,0l0,0l0,0l0,0l0,0l0,0l0,0l0,0l0,0l0,0l0,0l0,0l0,0l0,0l0,0l0,0l0,0l0,0l0,0l0,0l0,0l0,0l0,0l0,0l0,0l0,0l0,0l0,0
		l0,0l0,0l0,0l0,0l0,0l0,0l0,0l0,0l0,0l0,0l0,0l0,0l0,0l0,0l0,0l0,0l0,0l0,0l0,0l0,0l0,0l0,0l0,0l0,0l0,0l0,0l0,0l0,0l0,0l0,0l0,0
		l0,0.1l0,0l0,0l0,0l0,0l0,0.1l0,0.1l0,0l0,0l0,0.1l0,0.1l0,0.1l0,0.1l0,0l0,0.1l0,0.1l0,0.1l0,0.1l0,0.1l0,0.1l0,0.1l0,0.1l0,0.1
		l0,0.1l0,0.1l0,0.1l0,0.1l0,0.1l0,0.1l0,0.1l0,0.1l0,0.1l0,0.1l0,0.1l0,0.1l0,0.1l0,0.1l0,0.1l0,0.1l0,0.1l0,0.1l0,0.1l0,0.1l0,0.1
		l0,0.1l0,0.1l0,0.1l0,0.1l0,0l0,0l0,0l0,0l0,0l0,0l0,0l0,0l0,0l0,0l0,0l0,0l0,0l0,0l0,0l0,0l0,0l0,0l0,0l0,0l0,0l0,0l0,0l0,0l0,0
		l0,0l0,0l0,0l0.1,0l0,0l0,0l0,0l0,0l0,0l0,0l0,0l0,0l0,0l0,0l0,0l0.1,0l0,0l0,0l0,0l0,0l0,0l0,0l0,0l0,0l0,0l0,0l0.1,0l0,0l0,0l0,0
		l0,0l0.1,0l0,0l0,0l0,0l0,0l0,0l0,0l0,0l0,0l0,0l0,0l0,0l0.1,0l0,0l0,0l0,0l0,0l0.1,0l0,0l0,0l0,0l0,0l0,0l0,0l0,0l0,0l0,0l0,0l0,0
		l0,0l0,0l0,0l0,0l0,0l0,0l0,0l0,0l0,0l0,0l0,0l0,0l0,0l0,0l0,0l0,0l0,0l0,0l0,0l0,0l0,0l0,0l0,0l0,0l0,0l0,0l0,0l0,0l0,0l0,0l0,0
		l0,0l0,0l0,0l0,0l0,0l0,0l0,0l0,0l0,0l0,0l0,0l0,0l0,0l0,0l0,0l0,0l0,0l0,0l0,0l0,0l0,0l0,0l0,0l0,0l0,0l0,0l0,0l0,0l0,0l0,0l0,0
		l0,0l0,0l0,0l0,0l0,0l0,0l0,0l0,0l0,0l0,0l0,0l0,0l0,0h0l0,0l0,0l0,0l0,0l0,0l0,0l0,0l0,0l0,0l0,0l0,0l0,0l0,0l0,0l0,0l0,0l0,0l0,0
		l0,0l0,0l0,0l0,0l0,0l0,0l0,0l0,0l0,0l0,0l0,0l0,0l0,0l0,0l0,0l0,0l0,0l0,0l0,0l0,0l0,0c2.6-0.3,4.8-1.5,6.6-3.2
		c2.1-2.1,3.3-4.9,3.3-8.1s-1.3-6-3.3-8.1c-2.1-2.1-4.9-3.3-8.1-3.3c-1.2,0-2.4,0.2-3.4,0.5c-0.9,0.3-1.7,0.7-2.5,1.1v-3.1
		c0.5-0.2,1.1-0.5,1.7-0.6C315.7,410.3,317.1,410,318.6,410L318.6,410z"/>
	<polygon class="st2" points="302.3,421.7 302.8,431 311.6,424.9 302.3,421.7 	"/>
	<path class="st3" d="M227,333.4c9.2,0,16.6,7.4,16.6,16.6c0,9.2-7.4,16.6-16.6,16.6c-9.2,0-16.6-7.4-16.6-16.6
		C210.3,340.8,217.8,333.4,227,333.4L227,333.4z"/>
	<polygon class="st2" points="219,342 235,342 235,358 219,358 219,342 	"/>
	<polygon class="st3" points="220.1,343.2 233.8,343.2 233.8,350.9 230.6,347.7 229.1,349.2 231.3,351.3 230.6,351.7 224.4,345.5 
		220.1,349.8 220.1,343.2 	"/>
	<path class="st9" d="M227,332c5,0,9.5,2,12.7,5.3c3.3,3.3,5.3,7.8,5.3,12.7c0,5-2,9.5-5.3,12.7c-3.3,3.3-7.8,5.3-12.7,5.3
		c-5,0-9.5-2-12.7-5.3c-3.3-3.3-5.3-7.8-5.3-12.7c0-5,2-9.5,5.3-12.7C217.5,334,222,332,227,332L227,332z M239.3,337.7
		c-3.2-3.2-7.5-5.1-12.4-5.1c-4.8,0-9.2,2-12.4,5.1c-3.2,3.2-5.1,7.5-5.1,12.4c0,4.8,2,9.2,5.1,12.4c3.2,3.2,7.5,5.1,12.4,5.1
		c4.8,0,9.2-2,12.4-5.1c3.2-3.2,5.1-7.5,5.1-12.4C244.4,345.2,242.5,340.8,239.3,337.7L239.3,337.7z"/>
	<path class="st3" d="M418.3,412.7c9.2,0,16.6,7.4,16.6,16.6c0,9.2-7.4,16.6-16.6,16.6c-9.2,0-16.6-7.4-16.6-16.6
		C401.7,420.1,409.1,412.7,418.3,412.7L418.3,412.7z"/>
	<path class="st9" d="M418.3,411.3c5,0,9.5,2,12.7,5.3c3.3,3.3,5.3,7.8,5.3,12.7c0,5-2,9.5-5.3,12.7c-3.3,3.3-7.8,5.3-12.7,5.3
		c-5,0-9.5-2-12.7-5.3c-3.3-3.3-5.3-7.8-5.3-12.7c0-5,2-9.5,5.3-12.7C408.8,413.3,413.3,411.3,418.3,411.3L418.3,411.3z
		 M430.7,416.9c-3.2-3.2-7.5-5.1-12.4-5.1c-4.8,0-9.2,2-12.4,5.1s-5.1,7.5-5.1,12.4c0,4.8,2,9.2,5.1,12.4c3.2,3.2,7.5,5.1,12.4,5.1
		c4.8,0,9.2-2,12.4-5.1c3.2-3.2,5.1-7.5,5.1-12.4C435.8,424.5,433.8,420.1,430.7,416.9L430.7,416.9z"/>
	<path class="st2" d="M413.6,433.4c1.1-0.4,2.3-0.3,3.1,0.3v-12.5c0,0,2.1-1.3,2.8,2.5c0.7,3.8,6,2.4,6,2.4c-1.6,2.5-6,3.8-8.1,1.3
		v6v1.2v1.6c-0.3,0.8-1,1.5-1.9,1.9c-1.6,0.6-3.3,0.1-3.8-1.2C411.2,435.6,412.1,434,413.6,433.4L413.6,433.4z"/>
	<path class="st3" d="M306.2,300.6c9.2,0,16.6,7.4,16.6,16.6c0,9.2-7.4,16.6-16.6,16.6c-9.2,0-16.6-7.4-16.6-16.6
		C289.6,308,297,300.6,306.2,300.6L306.2,300.6z"/>
	<path class="st9" d="M306.2,299.2c5,0,9.5,2,12.7,5.3c3.3,3.3,5.3,7.8,5.3,12.7c0,5-2,9.5-5.3,12.7c-3.3,3.3-7.8,5.3-12.7,5.3
		c-5,0-9.5-2-12.7-5.3c-3.3-3.3-5.3-7.8-5.3-12.7c0-5,2-9.5,5.3-12.7C296.7,301.2,301.2,299.2,306.2,299.2L306.2,299.2z
		 M318.6,304.8c-3.2-3.2-7.5-5.1-12.4-5.1c-4.8,0-9.2,2-12.4,5.1c-3.2,3.2-5.1,7.5-5.1,12.4c0,4.8,2,9.2,5.1,12.4
		c3.2,3.2,7.5,5.1,12.4,5.1c4.8,0,9.2-2,12.4-5.1c3.2-3.2,5.1-7.5,5.1-12.4C323.7,312.4,321.7,308,318.6,304.8L318.6,304.8z"/>
	<polygon class="st2" points="298.7,322.2 302.2,324.6 310.9,312.2 307.4,309.7 298.7,322.2 	"/>
	<polygon class="st2" points="298,326.9 298.4,322.7 301.9,325.1 298,326.9 	"/>
	<polygon class="st2" points="308.6,308.1 312.1,310.5 311.2,311.7 307.8,309.3 308.6,308.1 	"/>
	<polygon class="st2" points="301.8,326.9 310.9,326.9 310.9,326 301.8,326 301.8,326.9 	"/>
	<polygon class="st2" points="311.4,326 313.5,326 313.5,326.9 311.4,326.9 311.4,326 	"/>
	<path class="st9" d="M306.2,348.3c22.3,0,42.6,9.1,57.2,23.7c14.6,14.6,23.7,34.9,23.7,57.2h-1c0-22.1-8.9-42-23.4-56.5
		c-14.5-14.5-34.4-23.4-56.5-23.4c-22.1,0-42,8.9-56.5,23.4c-14.5,14.5-23.4,34.4-23.4,56.5h-1c0-22.3,9.1-42.6,23.7-57.2
		C263.6,357.3,283.9,348.3,306.2,348.3L306.2,348.3z"/>
	<path class="st3" d="M193.7,412.6c9.2,0,16.6,7.4,16.6,16.6c0,9.2-7.4,16.6-16.6,16.6c-9.2,0-16.6-7.4-16.6-16.6
		C177.1,420,184.5,412.6,193.7,412.6L193.7,412.6z"/>
	<path class="st9" d="M193.7,411.2c5,0,9.5,2,12.7,5.3c3.3,3.3,5.3,7.8,5.3,12.7c0,5-2,9.5-5.3,12.7c-3.3,3.3-7.8,5.3-12.7,5.3
		c-5,0-9.5-2-12.7-5.3c-3.3-3.3-5.3-7.8-5.3-12.7c0-5,2-9.5,5.3-12.7C184.2,413.2,188.7,411.2,193.7,411.2L193.7,411.2z
		 M206.1,416.8c-3.2-3.2-7.5-5.1-12.4-5.1c-4.8,0-9.2,2-12.4,5.1c-3.2,3.2-5.1,7.5-5.1,12.4s2,9.2,5.1,12.4
		c3.2,3.2,7.5,5.1,12.4,5.1c4.8,0,9.2-2,12.4-5.1c3.2-3.2,5.1-7.5,5.1-12.4S209.2,420,206.1,416.8L206.1,416.8z"/>
	<path class="st2" d="M185.5,421h16.4v16.4h-16.4V421L185.5,421z M186.9,422.4h13.6V436h-11.5l-2.2-2.5V422.4L186.9,422.4z"/>
	<polygon class="st2" points="189.9,437.4 189.9,433 185.5,433 189.9,437.4 	"/>
	<polygon class="st2" points="191.1,424.4 199.8,424.4 199.8,425.2 191.1,425.2 191.1,424.4 	"/>
	<polygon class="st2" points="188.5,426.1 199.8,426.1 199.8,426.9 188.5,426.9 188.5,426.1 	"/>
	<polygon class="st2" points="188.5,427.7 199.8,427.7 199.8,428.5 188.5,428.5 188.5,427.7 	"/>
	<polygon class="st2" points="188.5,429.3 199.8,429.3 199.8,430.1 188.5,430.1 188.5,429.3 	"/>
	<polygon class="st2" points="188.5,430.9 199.8,430.9 199.8,431.7 188.5,431.7 188.5,430.9 	"/>
	<path class="st3" d="M385.5,333.4c9.2,0,16.6,7.4,16.6,16.6s-7.4,16.6-16.6,16.6c-9.2,0-16.6-7.4-16.6-16.6
		S376.3,333.4,385.5,333.4L385.5,333.4z"/>
	<path class="st9" d="M385.5,332c5,0,9.5,2,12.7,5.3c3.3,3.3,5.3,7.8,5.3,12.7s-2,9.5-5.3,12.7c-3.3,3.3-7.8,5.3-12.7,5.3
		c-5,0-9.5-2-12.7-5.3c-3.3-3.3-5.3-7.8-5.3-12.7s2-9.5,5.3-12.7C376,334,380.5,332,385.5,332L385.5,332z M397.8,337.7
		c-3.2-3.2-7.5-5.1-12.4-5.1c-4.8,0-9.2,2-12.4,5.1c-3.2,3.2-5.1,7.5-5.1,12.4s2,9.2,5.1,12.4c3.2,3.2,7.5,5.1,12.4,5.1
		c4.8,0,9.2-2,12.4-5.1c3.2-3.2,5.1-7.5,5.1-12.4S401,340.8,397.8,337.7L397.8,337.7z"/>
	<path class="st2" d="M375.7,340.7h3.9v18.7h-3.9V340.7L375.7,340.7z M391.3,340.7h3.9v18.7h-3.9V340.7L391.3,340.7z M376.7,341.6
		h1.9v2.1h-1.9V341.6L376.7,341.6z M376.7,346.5h1.9v2.1h-1.9V346.5L376.7,346.5z M376.7,351.4h1.9v2.1h-1.9V351.4L376.7,351.4z
		 M376.7,356.3h1.9v2.1h-1.9V356.3L376.7,356.3z M392.3,341.6h1.9v2.1h-1.9V341.6L392.3,341.6z M392.3,346.5h1.9v2.1h-1.9V346.5
		L392.3,346.5z M392.3,351.4h1.9v2.1h-1.9V351.4L392.3,351.4z M392.3,356.3h1.9v2.1h-1.9V356.3L392.3,356.3z"/>
	<polygon class="st2" points="380.2,341.6 390.7,341.6 390.7,358.5 380.2,358.5 380.2,341.6 	"/>
	<path class="st10" d="M226.3,429.2h-14.6 M239.5,362.6l9.4,9.4 M372.9,362.6l-10.2,10.2 M386.1,429.2h14.2 M306.2,335v13.8"/>
	<path class="st5" d="M306.2,347.5c0.7,0,1.3,0.6,1.3,1.3c0,0.7-0.6,1.3-1.3,1.3c-0.7,0-1.3-0.6-1.3-1.3
		C304.9,348.1,305.5,347.5,306.2,347.5L306.2,347.5z"/>
	<path class="st5" d="M249.3,371.1c0.7,0,1.3,0.6,1.3,1.3s-0.6,1.3-1.3,1.3s-1.3-0.6-1.3-1.3S248.6,371.1,249.3,371.1L249.3,371.1z"
		/>
	<path class="st5" d="M363,371.1c0.7,0,1.3,0.6,1.3,1.3s-0.6,1.3-1.3,1.3s-1.3-0.6-1.3-1.3S362.3,371.1,363,371.1L363,371.1z"/>
	<path class="st5" d="M225.8,427.9c0.7,0,1.3,0.6,1.3,1.3c0,0.7-0.6,1.3-1.3,1.3c-0.7,0-1.3-0.6-1.3-1.3
		C224.5,428.5,225.1,427.9,225.8,427.9L225.8,427.9z"/>
	<path class="st5" d="M386.6,427.9c0.7,0,1.3,0.6,1.3,1.3c0,0.7-0.6,1.3-1.3,1.3s-1.3-0.6-1.3-1.3
		C385.3,428.5,385.9,427.9,386.6,427.9L386.6,427.9z"/>
	<path class="st5" d="M306.2,333.9c0.7,0,1.3,0.6,1.3,1.3c0,0.7-0.6,1.3-1.3,1.3c-0.7,0-1.3-0.6-1.3-1.3
		C304.9,334.5,305.5,333.9,306.2,333.9L306.2,333.9z"/>
	<path class="st5" d="M372.7,361.4c0.7,0,1.3,0.6,1.3,1.3c0,0.7-0.6,1.3-1.3,1.3c-0.7,0-1.3-0.6-1.3-1.3
		C371.4,362,372,361.4,372.7,361.4L372.7,361.4z"/>
	<path class="st5" d="M239.7,361.4c0.7,0,1.3,0.6,1.3,1.3c0,0.7-0.6,1.3-1.3,1.3s-1.3-0.6-1.3-1.3C238.4,362,239,361.4,239.7,361.4
		L239.7,361.4z"/>
	<path class="st5" d="M211.7,427.9c0.7,0,1.3,0.6,1.3,1.3c0,0.7-0.6,1.3-1.3,1.3c-0.7,0-1.3-0.6-1.3-1.3
		C210.4,428.5,211,427.9,211.7,427.9L211.7,427.9z"/>
	<path class="st5" d="M400.3,427.9c0.7,0,1.3,0.6,1.3,1.3c0,0.7-0.6,1.3-1.3,1.3s-1.3-0.6-1.3-1.3
		C399,428.5,399.6,427.9,400.3,427.9L400.3,427.9z"/>
	<path class="st1" d="M247.8,496.4l0.5,0.1c-0.1,0.3-0.2,0.6-0.4,0.8c-0.2,0.2-0.5,0.3-0.8,0.3c-0.4,0-0.7-0.1-0.9-0.4
		c-0.2-0.3-0.4-0.6-0.4-1.1c0-0.3,0.1-0.6,0.2-0.8c0.1-0.2,0.3-0.4,0.5-0.5c0.2-0.1,0.4-0.2,0.7-0.2c0.3,0,0.6,0.1,0.8,0.2
		c0.2,0.2,0.3,0.4,0.4,0.7l-0.5,0.1c0-0.2-0.1-0.3-0.2-0.4c-0.1-0.1-0.3-0.1-0.4-0.1c-0.2,0-0.4,0.1-0.6,0.3
		c-0.2,0.2-0.2,0.5-0.2,0.8c0,0.4,0.1,0.7,0.2,0.8c0.1,0.2,0.3,0.3,0.6,0.3c0.2,0,0.4-0.1,0.5-0.2
		C247.7,496.8,247.8,496.6,247.8,496.4L247.8,496.4z"/>
	<polygon class="st1" points="248.7,497.4 248.7,493.5 249.2,493.5 249.2,497.4 248.7,497.4 	"/>
	<path class="st1" d="M249.8,496c0-0.5,0.1-0.9,0.4-1.2c0.2-0.2,0.5-0.3,0.9-0.3c0.4,0,0.7,0.1,1,0.4c0.2,0.3,0.4,0.6,0.4,1.1
		c0,0.4-0.1,0.7-0.2,0.9c-0.1,0.2-0.3,0.4-0.5,0.5c-0.2,0.1-0.4,0.2-0.7,0.2c-0.4,0-0.7-0.1-1-0.4
		C249.9,496.9,249.8,496.5,249.8,496L249.8,496z M250.3,496c0,0.4,0.1,0.6,0.2,0.8c0.2,0.2,0.4,0.3,0.6,0.3c0.2,0,0.4-0.1,0.6-0.3
		c0.2-0.2,0.2-0.5,0.2-0.8c0-0.4-0.1-0.6-0.2-0.8c-0.2-0.2-0.4-0.3-0.6-0.3c-0.2,0-0.4,0.1-0.6,0.3
		C250.3,495.4,250.3,495.6,250.3,496L250.3,496z"/>
	<path class="st1" d="M254.9,497.4V497c-0.2,0.3-0.5,0.5-0.9,0.5c-0.2,0-0.3,0-0.5-0.1c-0.1-0.1-0.3-0.1-0.3-0.2
		c-0.1-0.1-0.1-0.2-0.1-0.4c0-0.1,0-0.2,0-0.5v-1.8h0.5v1.6c0,0.3,0,0.4,0,0.5c0,0.1,0.1,0.2,0.2,0.3c0.1,0.1,0.2,0.1,0.4,0.1
		c0.1,0,0.3,0,0.4-0.1c0.1-0.1,0.2-0.2,0.3-0.3c0.1-0.1,0.1-0.3,0.1-0.6v-1.5h0.5v2.9H254.9L254.9,497.4z"/>
	<path class="st1" d="M257.9,497.4v-0.4c-0.2,0.3-0.4,0.4-0.8,0.4c-0.2,0-0.4-0.1-0.6-0.2c-0.2-0.1-0.3-0.3-0.4-0.5
		c-0.1-0.2-0.2-0.5-0.2-0.8c0-0.3,0-0.5,0.1-0.8c0.1-0.2,0.2-0.4,0.4-0.5c0.2-0.1,0.4-0.2,0.6-0.2c0.2,0,0.3,0,0.5,0.1
		c0.1,0.1,0.2,0.2,0.3,0.3v-1.4h0.5v4H257.9L257.9,497.4z M256.4,496c0,0.4,0.1,0.6,0.2,0.8c0.2,0.2,0.3,0.3,0.5,0.3
		c0.2,0,0.4-0.1,0.5-0.3c0.1-0.2,0.2-0.4,0.2-0.8c0-0.4-0.1-0.7-0.2-0.9c-0.2-0.2-0.3-0.3-0.6-0.3c-0.2,0-0.4,0.1-0.5,0.3
		C256.5,495.4,256.4,495.6,256.4,496L256.4,496z"/>
	<path class="st1" d="M262.6,496.4l0.5,0.1c-0.1,0.3-0.2,0.6-0.4,0.8c-0.2,0.2-0.5,0.3-0.8,0.3c-0.4,0-0.7-0.1-0.9-0.4
		c-0.2-0.3-0.4-0.6-0.4-1.1c0-0.3,0.1-0.6,0.2-0.8c0.1-0.2,0.3-0.4,0.5-0.5c0.2-0.1,0.4-0.2,0.7-0.2c0.3,0,0.6,0.1,0.8,0.2
		c0.2,0.2,0.3,0.4,0.4,0.7l-0.5,0.1c0-0.2-0.1-0.3-0.2-0.4c-0.1-0.1-0.3-0.1-0.4-0.1c-0.2,0-0.4,0.1-0.6,0.3
		c-0.2,0.2-0.2,0.5-0.2,0.8c0,0.4,0.1,0.7,0.2,0.8c0.1,0.2,0.3,0.3,0.6,0.3c0.2,0,0.4-0.1,0.5-0.2
		C262.5,496.8,262.5,496.6,262.6,496.4L262.6,496.4z"/>
	<path class="st1" d="M263.3,496c0-0.5,0.1-0.9,0.4-1.2c0.2-0.2,0.5-0.3,0.9-0.3c0.4,0,0.7,0.1,1,0.4c0.2,0.3,0.4,0.6,0.4,1.1
		c0,0.4-0.1,0.7-0.2,0.9c-0.1,0.2-0.3,0.4-0.5,0.5c-0.2,0.1-0.4,0.2-0.7,0.2c-0.4,0-0.7-0.1-1-0.4
		C263.4,496.9,263.3,496.5,263.3,496L263.3,496z M263.8,496c0,0.4,0.1,0.6,0.2,0.8c0.2,0.2,0.4,0.3,0.6,0.3c0.2,0,0.4-0.1,0.6-0.3
		c0.2-0.2,0.2-0.5,0.2-0.8c0-0.4-0.1-0.6-0.2-0.8c-0.2-0.2-0.4-0.3-0.6-0.3c-0.2,0-0.4,0.1-0.6,0.3
		C263.9,495.4,263.8,495.6,263.8,496L263.8,496z"/>
	<path class="st1" d="M266.5,497.4v-2.9h0.4v0.4c0.1-0.1,0.2-0.3,0.4-0.3c0.1-0.1,0.3-0.1,0.5-0.1c0.2,0,0.4,0,0.5,0.1
		c0.1,0.1,0.2,0.2,0.3,0.4c0.2-0.3,0.5-0.5,0.9-0.5c0.3,0,0.5,0.1,0.7,0.2c0.2,0.2,0.2,0.4,0.2,0.7v2h-0.5v-1.8c0-0.2,0-0.3,0-0.4
		c0-0.1-0.1-0.2-0.2-0.2c-0.1-0.1-0.2-0.1-0.3-0.1c-0.2,0-0.4,0.1-0.5,0.2c-0.1,0.1-0.2,0.3-0.2,0.6v1.7h-0.5v-1.9
		c0-0.2,0-0.4-0.1-0.5s-0.2-0.2-0.4-0.2c-0.1,0-0.3,0-0.4,0.1c-0.1,0.1-0.2,0.2-0.3,0.3c-0.1,0.1-0.1,0.3-0.1,0.6v1.5H266.5
		L266.5,497.4z"/>
	<path class="st1" d="M271.1,498.5v-4h0.4v0.4c0.1-0.1,0.2-0.3,0.4-0.3c0.1-0.1,0.3-0.1,0.5-0.1c0.2,0,0.5,0.1,0.6,0.2
		c0.2,0.1,0.3,0.3,0.4,0.5c0.1,0.2,0.1,0.5,0.1,0.8c0,0.3-0.1,0.6-0.2,0.8c-0.1,0.2-0.3,0.4-0.5,0.5c-0.2,0.1-0.4,0.2-0.6,0.2
		c-0.2,0-0.3,0-0.4-0.1c-0.1-0.1-0.2-0.2-0.3-0.3v1.4H271.1L271.1,498.5z M271.6,496c0,0.4,0.1,0.6,0.2,0.8c0.1,0.2,0.3,0.3,0.5,0.3
		c0.2,0,0.4-0.1,0.6-0.3c0.2-0.2,0.2-0.5,0.2-0.8c0-0.4-0.1-0.6-0.2-0.8c-0.2-0.2-0.3-0.3-0.5-0.3c-0.2,0-0.4,0.1-0.5,0.3
		C271.7,495.4,271.6,495.7,271.6,496L271.6,496z"/>
	<path class="st1" d="M276.1,497.4V497c-0.2,0.3-0.5,0.5-0.9,0.5c-0.2,0-0.3,0-0.5-0.1c-0.1-0.1-0.3-0.1-0.3-0.2
		c-0.1-0.1-0.1-0.2-0.1-0.4c0-0.1,0-0.2,0-0.5v-1.8h0.5v1.6c0,0.3,0,0.4,0,0.5c0,0.1,0.1,0.2,0.2,0.3c0.1,0.1,0.2,0.1,0.4,0.1
		c0.1,0,0.3,0,0.4-0.1c0.1-0.1,0.2-0.2,0.3-0.3c0.1-0.1,0.1-0.3,0.1-0.6v-1.5h0.5v2.9H276.1L276.1,497.4z"/>
	<path class="st1" d="M278.3,497l0.1,0.4c-0.1,0-0.3,0-0.4,0c-0.2,0-0.3,0-0.4-0.1c-0.1-0.1-0.2-0.1-0.2-0.2c0-0.1-0.1-0.3-0.1-0.6
		V495H277v-0.4h0.4v-0.7l0.5-0.3v1h0.5v0.4h-0.5v1.7c0,0.1,0,0.2,0,0.3c0,0,0,0.1,0.1,0.1c0,0,0.1,0,0.2,0
		C278.2,497,278.2,497,278.3,497L278.3,497z"/>
	<path class="st1" d="M278.8,494v-0.6h0.5v0.6H278.8L278.8,494z M278.8,497.4v-2.9h0.5v2.9H278.8L278.8,497.4z"/>
	<path class="st1" d="M280,497.4v-2.9h0.4v0.4c0.2-0.3,0.5-0.5,0.9-0.5c0.2,0,0.3,0,0.5,0.1c0.1,0.1,0.3,0.1,0.3,0.2
		c0.1,0.1,0.1,0.2,0.2,0.4c0,0.1,0,0.2,0,0.5v1.8h-0.5v-1.7c0-0.2,0-0.3-0.1-0.4c0-0.1-0.1-0.2-0.2-0.2c-0.1-0.1-0.2-0.1-0.3-0.1
		c-0.2,0-0.4,0.1-0.5,0.2c-0.2,0.1-0.2,0.4-0.2,0.7v1.6H280L280,497.4z"/>
	<path class="st1" d="M283,497.7l0.5,0.1c0,0.1,0.1,0.3,0.2,0.3c0.1,0.1,0.3,0.1,0.5,0.1c0.2,0,0.4,0,0.5-0.1
		c0.1-0.1,0.2-0.2,0.2-0.4c0-0.1,0-0.3,0-0.6c-0.2,0.3-0.5,0.4-0.8,0.4c-0.4,0-0.7-0.1-0.9-0.4c-0.2-0.3-0.3-0.6-0.3-1
		c0-0.3,0-0.5,0.1-0.8c0.1-0.2,0.2-0.4,0.4-0.5c0.2-0.1,0.4-0.2,0.7-0.2c0.3,0,0.6,0.1,0.8,0.4v-0.4h0.4v2.5c0,0.4,0,0.8-0.1,0.9
		c-0.1,0.2-0.2,0.3-0.4,0.4c-0.2,0.1-0.4,0.2-0.7,0.2c-0.3,0-0.6-0.1-0.8-0.2C283.1,498.2,283,498,283,497.7L283,497.7z M283.4,496
		c0,0.4,0.1,0.6,0.2,0.8c0.1,0.2,0.3,0.3,0.6,0.3c0.2,0,0.4-0.1,0.6-0.3c0.2-0.2,0.2-0.4,0.2-0.8c0-0.4-0.1-0.6-0.2-0.8
		c-0.2-0.2-0.3-0.3-0.6-0.3c-0.2,0-0.4,0.1-0.6,0.3C283.5,495.4,283.4,495.6,283.4,496L283.4,496z"/>
	<path class="st1" d="M287.7,494v-0.6h0.5v0.6H287.7L287.7,494z M287.7,497.4v-2.9h0.5v2.9H287.7L287.7,497.4z"/>
	<path class="st1" d="M288.8,496.6l0.5-0.1c0,0.2,0.1,0.3,0.2,0.4c0.1,0.1,0.3,0.2,0.5,0.2c0.2,0,0.4,0,0.5-0.1
		c0.1-0.1,0.2-0.2,0.2-0.3c0-0.1,0-0.2-0.1-0.3c-0.1,0-0.2-0.1-0.5-0.2c-0.4-0.1-0.6-0.2-0.7-0.2c-0.1-0.1-0.2-0.2-0.3-0.3
		c-0.1-0.1-0.1-0.2-0.1-0.4c0-0.1,0-0.2,0.1-0.4c0.1-0.1,0.1-0.2,0.2-0.3c0.1-0.1,0.2-0.1,0.3-0.1c0.1,0,0.3-0.1,0.4-0.1
		c0.2,0,0.4,0,0.6,0.1c0.2,0.1,0.3,0.2,0.4,0.3c0.1,0.1,0.1,0.3,0.2,0.4l-0.5,0.1c0-0.1-0.1-0.3-0.2-0.3c-0.1-0.1-0.2-0.1-0.4-0.1
		c-0.2,0-0.4,0-0.5,0.1c-0.1,0.1-0.1,0.2-0.1,0.3c0,0.1,0,0.1,0.1,0.2c0,0.1,0.1,0.1,0.2,0.1c0,0,0.2,0.1,0.4,0.1
		c0.3,0.1,0.6,0.2,0.7,0.2c0.1,0.1,0.2,0.1,0.3,0.3c0.1,0.1,0.1,0.2,0.1,0.4c0,0.2,0,0.3-0.1,0.5c-0.1,0.1-0.2,0.3-0.4,0.3
		c-0.2,0.1-0.4,0.1-0.6,0.1c-0.4,0-0.7-0.1-0.9-0.2C288.9,497.1,288.8,496.9,288.8,496.6L288.8,496.6z"/>
	<path class="st1" d="M295.1,497.1c-0.2,0.2-0.4,0.3-0.5,0.3c-0.2,0.1-0.3,0.1-0.5,0.1c-0.3,0-0.6-0.1-0.7-0.2
		c-0.2-0.2-0.3-0.3-0.3-0.6c0-0.1,0-0.3,0.1-0.4c0.1-0.1,0.1-0.2,0.3-0.3c0.1-0.1,0.2-0.1,0.3-0.2c0.1,0,0.2,0,0.4-0.1
		c0.4,0,0.7-0.1,0.9-0.2c0-0.1,0-0.1,0-0.1c0-0.2,0-0.3-0.1-0.4c-0.1-0.1-0.3-0.2-0.6-0.2c-0.2,0-0.4,0-0.5,0.1
		c-0.1,0.1-0.2,0.2-0.2,0.4l-0.5-0.1c0-0.2,0.1-0.4,0.2-0.5c0.1-0.1,0.2-0.2,0.4-0.3c0.2-0.1,0.4-0.1,0.7-0.1c0.2,0,0.4,0,0.6,0.1
		c0.2,0.1,0.3,0.1,0.3,0.2c0.1,0.1,0.1,0.2,0.2,0.3c0,0.1,0,0.2,0,0.4v0.6c0,0.5,0,0.7,0,0.9c0,0.1,0.1,0.2,0.1,0.3h-0.5
		C295.2,497.3,295.1,497.2,295.1,497.1L295.1,497.1z M295.1,496c-0.2,0.1-0.4,0.1-0.8,0.2c-0.2,0-0.3,0.1-0.4,0.1
		c-0.1,0-0.1,0.1-0.2,0.2c0,0.1-0.1,0.1-0.1,0.2c0,0.1,0,0.2,0.1,0.3c0.1,0.1,0.2,0.1,0.4,0.1c0.2,0,0.4,0,0.5-0.1
		c0.1-0.1,0.3-0.2,0.3-0.3c0.1-0.1,0.1-0.3,0.1-0.5L295.1,496L295.1,496z"/>
	<path class="st1" d="M297.8,497.7l0.5,0.1c0,0.1,0.1,0.3,0.2,0.3c0.1,0.1,0.3,0.1,0.5,0.1c0.2,0,0.4,0,0.5-0.1s0.2-0.2,0.2-0.4
		c0-0.1,0-0.3,0-0.6c-0.2,0.3-0.5,0.4-0.8,0.4c-0.4,0-0.7-0.1-0.9-0.4c-0.2-0.3-0.3-0.6-0.3-1c0-0.3,0-0.5,0.1-0.8
		c0.1-0.2,0.2-0.4,0.4-0.5c0.2-0.1,0.4-0.2,0.7-0.2c0.3,0,0.6,0.1,0.8,0.4v-0.4h0.4v2.5c0,0.4,0,0.8-0.1,0.9
		c-0.1,0.2-0.2,0.3-0.4,0.4c-0.2,0.1-0.4,0.2-0.7,0.2c-0.3,0-0.6-0.1-0.8-0.2C297.9,498.2,297.8,498,297.8,497.7L297.8,497.7z
		 M298.2,496c0,0.4,0.1,0.6,0.2,0.8c0.1,0.2,0.3,0.3,0.6,0.3c0.2,0,0.4-0.1,0.6-0.3c0.2-0.2,0.2-0.4,0.2-0.8c0-0.4-0.1-0.6-0.2-0.8
		s-0.3-0.3-0.6-0.3c-0.2,0-0.4,0.1-0.6,0.3C298.2,495.4,298.2,495.6,298.2,496L298.2,496z"/>
	<path class="st1" d="M302.9,496.5l0.5,0.1c-0.1,0.3-0.2,0.5-0.4,0.7c-0.2,0.2-0.5,0.2-0.8,0.2c-0.4,0-0.7-0.1-1-0.4
		c-0.2-0.3-0.4-0.6-0.4-1.1c0-0.5,0.1-0.9,0.4-1.1c0.2-0.3,0.6-0.4,1-0.4c0.4,0,0.7,0.1,0.9,0.4c0.2,0.3,0.4,0.6,0.4,1.1
		c0,0,0,0.1,0,0.1h-2.1c0,0.3,0.1,0.6,0.3,0.7c0.2,0.2,0.4,0.3,0.6,0.3c0.2,0,0.3,0,0.5-0.1C302.7,496.9,302.8,496.7,302.9,496.5
		L302.9,496.5z M301.3,495.7h1.6c0-0.2-0.1-0.4-0.2-0.5c-0.2-0.2-0.4-0.3-0.6-0.3c-0.2,0-0.4,0.1-0.6,0.2
		C301.4,495.3,301.3,495.5,301.3,495.7L301.3,495.7z"/>
	<path class="st1" d="M304,497.4v-2.9h0.4v0.4c0.2-0.3,0.5-0.5,0.9-0.5c0.2,0,0.3,0,0.5,0.1c0.1,0.1,0.3,0.1,0.3,0.2
		c0.1,0.1,0.1,0.2,0.2,0.4c0,0.1,0,0.2,0,0.5v1.8h-0.5v-1.7c0-0.2,0-0.3-0.1-0.4c0-0.1-0.1-0.2-0.2-0.2c-0.1-0.1-0.2-0.1-0.3-0.1
		c-0.2,0-0.4,0.1-0.5,0.2c-0.2,0.1-0.2,0.4-0.2,0.7v1.6H304L304,497.4z"/>
	<path class="st1" d="M309,496.5l0.5,0.1c-0.1,0.3-0.2,0.5-0.4,0.7c-0.2,0.2-0.5,0.2-0.8,0.2c-0.4,0-0.7-0.1-1-0.4
		c-0.2-0.3-0.4-0.6-0.4-1.1c0-0.5,0.1-0.9,0.4-1.1c0.2-0.3,0.6-0.4,1-0.4c0.4,0,0.7,0.1,0.9,0.4c0.2,0.3,0.4,0.6,0.4,1.1
		c0,0,0,0.1,0,0.1h-2.1c0,0.3,0.1,0.6,0.3,0.7c0.2,0.2,0.4,0.3,0.6,0.3c0.2,0,0.3,0,0.5-0.1C308.9,496.9,309,496.7,309,496.5
		L309,496.5z M307.4,495.7h1.6c0-0.2-0.1-0.4-0.2-0.5c-0.2-0.2-0.4-0.3-0.6-0.3c-0.2,0-0.4,0.1-0.6,0.2
		C307.5,495.3,307.5,495.5,307.4,495.7L307.4,495.7z"/>
	<path class="st1" d="M310.1,497.4v-2.9h0.4v0.4c0.1-0.2,0.2-0.3,0.3-0.4c0.1-0.1,0.2-0.1,0.3-0.1c0.2,0,0.3,0.1,0.5,0.2l-0.2,0.4
		c-0.1-0.1-0.2-0.1-0.4-0.1c-0.1,0-0.2,0-0.3,0.1c-0.1,0.1-0.1,0.2-0.2,0.3c-0.1,0.2-0.1,0.4-0.1,0.6v1.5H310.1L310.1,497.4z"/>
	<path class="st1" d="M313.9,497.1c-0.2,0.2-0.4,0.3-0.5,0.3c-0.2,0.1-0.3,0.1-0.5,0.1c-0.3,0-0.6-0.1-0.7-0.2
		c-0.2-0.2-0.3-0.3-0.3-0.6c0-0.1,0-0.3,0.1-0.4c0.1-0.1,0.1-0.2,0.3-0.3c0.1-0.1,0.2-0.1,0.3-0.2c0.1,0,0.2,0,0.4-0.1
		c0.4,0,0.7-0.1,0.9-0.2c0-0.1,0-0.1,0-0.1c0-0.2,0-0.3-0.1-0.4c-0.1-0.1-0.3-0.2-0.6-0.2c-0.2,0-0.4,0-0.5,0.1
		c-0.1,0.1-0.2,0.2-0.2,0.4l-0.5-0.1c0-0.2,0.1-0.4,0.2-0.5c0.1-0.1,0.2-0.2,0.4-0.3c0.2-0.1,0.4-0.1,0.7-0.1c0.2,0,0.4,0,0.6,0.1
		c0.2,0.1,0.3,0.1,0.3,0.2c0.1,0.1,0.1,0.2,0.2,0.3c0,0.1,0,0.2,0,0.4v0.6c0,0.5,0,0.7,0,0.9c0,0.1,0.1,0.2,0.1,0.3H314
		C313.9,497.3,313.9,497.2,313.9,497.1L313.9,497.1z M313.8,496c-0.2,0.1-0.4,0.1-0.8,0.2c-0.2,0-0.3,0.1-0.4,0.1
		c-0.1,0-0.1,0.1-0.2,0.2c0,0.1-0.1,0.1-0.1,0.2c0,0.1,0,0.2,0.1,0.3c0.1,0.1,0.2,0.1,0.4,0.1c0.2,0,0.4,0,0.5-0.1
		c0.1-0.1,0.3-0.2,0.3-0.3c0.1-0.1,0.1-0.3,0.1-0.5L313.8,496L313.8,496z"/>
	<polygon class="st1" points="315,497.4 315,493.5 315.5,493.5 315.5,497.4 315,497.4 	"/>
	<path class="st1" d="M318.9,497l0.1,0.4c-0.1,0-0.3,0-0.4,0c-0.2,0-0.3,0-0.4-0.1c-0.1-0.1-0.2-0.1-0.2-0.2c0-0.1-0.1-0.3-0.1-0.6
		V495h-0.4v-0.4h0.4v-0.7l0.5-0.3v1h0.5v0.4h-0.5v1.7c0,0.1,0,0.2,0,0.3c0,0,0,0.1,0.1,0.1c0,0,0.1,0,0.2,0
		C318.7,497,318.8,497,318.9,497L318.9,497z"/>
	<path class="st1" d="M321.3,496.5l0.5,0.1c-0.1,0.3-0.2,0.5-0.4,0.7c-0.2,0.2-0.5,0.2-0.8,0.2c-0.4,0-0.7-0.1-1-0.4
		c-0.2-0.3-0.4-0.6-0.4-1.1c0-0.5,0.1-0.9,0.4-1.1c0.2-0.3,0.6-0.4,1-0.4c0.4,0,0.7,0.1,0.9,0.4c0.2,0.3,0.4,0.6,0.4,1.1
		c0,0,0,0.1,0,0.1h-2.1c0,0.3,0.1,0.6,0.3,0.7c0.2,0.2,0.4,0.3,0.6,0.3c0.2,0,0.3,0,0.5-0.1C321.1,496.9,321.2,496.7,321.3,496.5
		L321.3,496.5z M319.7,495.7h1.6c0-0.2-0.1-0.4-0.2-0.5c-0.2-0.2-0.4-0.3-0.6-0.3c-0.2,0-0.4,0.1-0.6,0.2
		C319.8,495.3,319.7,495.5,319.7,495.7L319.7,495.7z"/>
	<path class="st1" d="M322.4,497.4v-2.9h0.4v0.4c0.1-0.2,0.2-0.3,0.3-0.4c0.1-0.1,0.2-0.1,0.3-0.1c0.2,0,0.3,0.1,0.5,0.2l-0.2,0.4
		c-0.1-0.1-0.2-0.1-0.4-0.1c-0.1,0-0.2,0-0.3,0.1c-0.1,0.1-0.1,0.2-0.2,0.3c-0.1,0.2-0.1,0.4-0.1,0.6v1.5H322.4L322.4,497.4z"/>
	<path class="st1" d="M324.3,497.4v-2.9h0.4v0.4c0.1-0.1,0.2-0.3,0.4-0.3c0.1-0.1,0.3-0.1,0.5-0.1c0.2,0,0.4,0,0.5,0.1
		c0.1,0.1,0.2,0.2,0.3,0.4c0.2-0.3,0.5-0.5,0.9-0.5c0.3,0,0.5,0.1,0.7,0.2c0.2,0.2,0.2,0.4,0.2,0.7v2h-0.5v-1.8c0-0.2,0-0.3,0-0.4
		c0-0.1-0.1-0.2-0.2-0.2c-0.1-0.1-0.2-0.1-0.3-0.1c-0.2,0-0.4,0.1-0.5,0.2c-0.1,0.1-0.2,0.3-0.2,0.6v1.7H326v-1.9
		c0-0.2,0-0.4-0.1-0.5c-0.1-0.1-0.2-0.2-0.4-0.2c-0.1,0-0.3,0-0.4,0.1c-0.1,0.1-0.2,0.2-0.3,0.3c-0.1,0.1-0.1,0.3-0.1,0.6v1.5H324.3
		L324.3,497.4z"/>
	<path class="st1" d="M330.5,497.4V495h-0.4v-0.4h0.4v-0.3c0-0.2,0-0.3,0.1-0.4c0-0.1,0.1-0.2,0.2-0.3c0.1-0.1,0.3-0.1,0.5-0.1
		c0.1,0,0.3,0,0.5,0l-0.1,0.4c-0.1,0-0.2,0-0.3,0c-0.1,0-0.3,0-0.3,0.1c-0.1,0.1-0.1,0.2-0.1,0.4v0.3h0.6v0.4H331v2.5H330.5
		L330.5,497.4z"/>
	<path class="st1" d="M331.8,496c0-0.5,0.1-0.9,0.4-1.2c0.2-0.2,0.5-0.3,0.9-0.3c0.4,0,0.7,0.1,1,0.4c0.2,0.3,0.4,0.6,0.4,1.1
		c0,0.4-0.1,0.7-0.2,0.9c-0.1,0.2-0.3,0.4-0.5,0.5c-0.2,0.1-0.4,0.2-0.7,0.2c-0.4,0-0.7-0.1-1-0.4
		C331.9,496.9,331.8,496.5,331.8,496L331.8,496z M332.3,496c0,0.4,0.1,0.6,0.2,0.8c0.2,0.2,0.4,0.3,0.6,0.3c0.2,0,0.4-0.1,0.6-0.3
		c0.2-0.2,0.2-0.5,0.2-0.8c0-0.4-0.1-0.6-0.2-0.8c-0.2-0.2-0.4-0.3-0.6-0.3c-0.2,0-0.4,0.1-0.6,0.3
		C332.3,495.4,332.3,495.6,332.3,496L332.3,496z"/>
	<path class="st1" d="M335,497.4v-2.9h0.4v0.4c0.1-0.2,0.2-0.3,0.3-0.4c0.1-0.1,0.2-0.1,0.3-0.1c0.2,0,0.3,0.1,0.5,0.2l-0.2,0.4
		c-0.1-0.1-0.2-0.1-0.4-0.1c-0.1,0-0.2,0-0.3,0.1c-0.1,0.1-0.1,0.2-0.2,0.3c-0.1,0.2-0.1,0.4-0.1,0.6v1.5H335L335,497.4z"/>
	<path class="st1" d="M339.4,497l0.1,0.4c-0.1,0-0.3,0-0.4,0c-0.2,0-0.3,0-0.4-0.1c-0.1-0.1-0.2-0.1-0.2-0.2c0-0.1-0.1-0.3-0.1-0.6
		V495h-0.4v-0.4h0.4v-0.7l0.5-0.3v1h0.5v0.4H339v1.7c0,0.1,0,0.2,0,0.3c0,0,0,0.1,0.1,0.1c0,0,0.1,0,0.2,0
		C339.3,497,339.4,497,339.4,497L339.4,497z"/>
	<path class="st1" d="M339.9,497.4v-4h0.5v1.4c0.2-0.3,0.5-0.4,0.9-0.4c0.2,0,0.4,0,0.6,0.1c0.2,0.1,0.3,0.2,0.3,0.3
		s0.1,0.4,0.1,0.6v1.8h-0.5v-1.8c0-0.2-0.1-0.4-0.2-0.5c-0.1-0.1-0.3-0.2-0.4-0.2c-0.1,0-0.3,0-0.4,0.1s-0.2,0.2-0.3,0.3
		c-0.1,0.1-0.1,0.3-0.1,0.5v1.6H339.9L339.9,497.4z"/>
	<path class="st1" d="M344.9,496.5l0.5,0.1c-0.1,0.3-0.2,0.5-0.4,0.7c-0.2,0.2-0.5,0.2-0.8,0.2c-0.4,0-0.7-0.1-1-0.4
		c-0.2-0.3-0.4-0.6-0.4-1.1c0-0.5,0.1-0.9,0.4-1.1c0.2-0.3,0.6-0.4,1-0.4c0.4,0,0.7,0.1,0.9,0.4c0.2,0.3,0.4,0.6,0.4,1.1
		c0,0,0,0.1,0,0.1h-2.1c0,0.3,0.1,0.6,0.3,0.7c0.2,0.2,0.4,0.3,0.6,0.3c0.2,0,0.3,0,0.5-0.1C344.8,496.9,344.9,496.7,344.9,496.5
		L344.9,496.5z M343.4,495.7h1.6c0-0.2-0.1-0.4-0.2-0.5c-0.2-0.2-0.4-0.3-0.6-0.3c-0.2,0-0.4,0.1-0.6,0.2
		C343.5,495.3,343.4,495.5,343.4,495.7L343.4,495.7z"/>
	<path class="st1" d="M349.5,497.4v-0.4c-0.2,0.3-0.4,0.4-0.8,0.4c-0.2,0-0.4-0.1-0.6-0.2c-0.2-0.1-0.3-0.3-0.4-0.5
		c-0.1-0.2-0.2-0.5-0.2-0.8c0-0.3,0-0.5,0.1-0.8c0.1-0.2,0.2-0.4,0.4-0.5c0.2-0.1,0.4-0.2,0.6-0.2c0.2,0,0.3,0,0.5,0.1
		c0.1,0.1,0.2,0.2,0.3,0.3v-1.4h0.5v4H349.5L349.5,497.4z M347.9,496c0,0.4,0.1,0.6,0.2,0.8c0.2,0.2,0.3,0.3,0.5,0.3
		c0.2,0,0.4-0.1,0.5-0.3c0.1-0.2,0.2-0.4,0.2-0.8c0-0.4-0.1-0.7-0.2-0.9c-0.2-0.2-0.3-0.3-0.6-0.3c-0.2,0-0.4,0.1-0.5,0.3
		C348,495.4,347.9,495.6,347.9,496L347.9,496z"/>
	<path class="st1" d="M352.6,496.5l0.5,0.1c-0.1,0.3-0.2,0.5-0.4,0.7c-0.2,0.2-0.5,0.2-0.8,0.2c-0.4,0-0.7-0.1-1-0.4
		c-0.2-0.3-0.4-0.6-0.4-1.1c0-0.5,0.1-0.9,0.4-1.1c0.2-0.3,0.6-0.4,1-0.4c0.4,0,0.7,0.1,0.9,0.4c0.2,0.3,0.4,0.6,0.4,1.1
		c0,0,0,0.1,0,0.1H351c0,0.3,0.1,0.6,0.3,0.7c0.2,0.2,0.4,0.3,0.6,0.3c0.2,0,0.3,0,0.5-0.1C352.5,496.9,352.6,496.7,352.6,496.5
		L352.6,496.5z M351,495.7h1.6c0-0.2-0.1-0.4-0.2-0.5c-0.2-0.2-0.4-0.3-0.6-0.3c-0.2,0-0.4,0.1-0.6,0.2
		C351.1,495.3,351.1,495.5,351,495.7L351,495.7z"/>
	<polygon class="st1" points="353.7,497.4 353.7,493.5 354.2,493.5 354.2,497.4 353.7,497.4 	"/>
	<path class="st1" d="M355,494v-0.6h0.5v0.6H355L355,494z M355,497.4v-2.9h0.5v2.9H355L355,497.4z"/>
	<path class="st1" d="M357,497.4l-1.1-2.9h0.5l0.6,1.7c0.1,0.2,0.1,0.4,0.2,0.6c0-0.2,0.1-0.3,0.2-0.5l0.6-1.7h0.5l-1.1,2.9H357
		L357,497.4z"/>
	<path class="st1" d="M360.9,496.5l0.5,0.1c-0.1,0.3-0.2,0.5-0.4,0.7c-0.2,0.2-0.5,0.2-0.8,0.2c-0.4,0-0.7-0.1-1-0.4
		c-0.2-0.3-0.4-0.6-0.4-1.1c0-0.5,0.1-0.9,0.4-1.1c0.2-0.3,0.6-0.4,1-0.4c0.4,0,0.7,0.1,0.9,0.4c0.2,0.3,0.4,0.6,0.4,1.1
		c0,0,0,0.1,0,0.1h-2.1c0,0.3,0.1,0.6,0.3,0.7c0.2,0.2,0.4,0.3,0.6,0.3c0.2,0,0.3,0,0.5-0.1C360.7,496.9,360.8,496.7,360.9,496.5
		L360.9,496.5z M359.3,495.7h1.6c0-0.2-0.1-0.4-0.2-0.5c-0.2-0.2-0.4-0.3-0.6-0.3c-0.2,0-0.4,0.1-0.6,0.2
		C359.4,495.3,359.3,495.5,359.3,495.7L359.3,495.7z"/>
	<path class="st1" d="M362,497.4v-2.9h0.4v0.4c0.1-0.2,0.2-0.3,0.3-0.4c0.1-0.1,0.2-0.1,0.3-0.1c0.2,0,0.3,0.1,0.5,0.2l-0.2,0.4
		c-0.1-0.1-0.2-0.1-0.4-0.1c-0.1,0-0.2,0-0.3,0.1c-0.1,0.1-0.1,0.2-0.2,0.3c-0.1,0.2-0.1,0.4-0.1,0.6v1.5H362L362,497.4z"/>
	<path class="st1" d="M363.9,498.5l-0.1-0.4c0.1,0,0.2,0,0.3,0c0.1,0,0.2,0,0.3-0.1c0.1,0,0.1-0.1,0.2-0.2c0,0,0.1-0.2,0.1-0.4
		c0,0,0-0.1,0-0.1l-1.1-2.9h0.5l0.6,1.7c0.1,0.2,0.1,0.4,0.2,0.7c0.1-0.2,0.1-0.4,0.2-0.6l0.6-1.7h0.5l-1.1,2.9
		c-0.1,0.3-0.2,0.5-0.3,0.6c-0.1,0.2-0.2,0.3-0.3,0.4c-0.1,0.1-0.2,0.1-0.4,0.1C364.1,498.6,364,498.6,363.9,498.5L363.9,498.5z"/>
	<path class="st1" d="M262.4,502.2c0-0.5,0.1-0.9,0.4-1.2c0.2-0.2,0.5-0.3,0.9-0.3c0.4,0,0.7,0.1,1,0.4c0.2,0.3,0.4,0.6,0.4,1.1
		c0,0.4-0.1,0.7-0.2,0.9c-0.1,0.2-0.3,0.4-0.5,0.5c-0.2,0.1-0.4,0.2-0.7,0.2c-0.4,0-0.7-0.1-1-0.4
		C262.5,503,262.4,502.7,262.4,502.2L262.4,502.2z M262.9,502.2c0,0.4,0.1,0.6,0.2,0.8c0.2,0.2,0.4,0.3,0.6,0.3
		c0.2,0,0.4-0.1,0.6-0.3c0.2-0.2,0.2-0.5,0.2-0.8c0-0.4-0.1-0.6-0.2-0.8c-0.2-0.2-0.4-0.3-0.6-0.3c-0.2,0-0.4,0.1-0.6,0.3
		C262.9,501.5,262.9,501.8,262.9,502.2L262.9,502.2z"/>
	<path class="st1" d="M265.7,503.6v-2.5h-0.4v-0.4h0.4v-0.3c0-0.2,0-0.3,0.1-0.4c0-0.1,0.1-0.2,0.2-0.3c0.1-0.1,0.3-0.1,0.5-0.1
		c0.1,0,0.3,0,0.5,0l-0.1,0.4c-0.1,0-0.2,0-0.3,0c-0.1,0-0.3,0-0.3,0.1c-0.1,0.1-0.1,0.2-0.1,0.4v0.3h0.6v0.4h-0.6v2.5H265.7
		L265.7,503.6z"/>
	<path class="st1" d="M268.7,503.6v-4h0.5v1.4c0.2-0.3,0.5-0.4,0.9-0.4c0.2,0,0.4,0,0.6,0.1c0.2,0.1,0.3,0.2,0.3,0.3
		c0.1,0.1,0.1,0.4,0.1,0.6v1.8h-0.5v-1.8c0-0.2-0.1-0.4-0.2-0.5c-0.1-0.1-0.3-0.2-0.4-0.2c-0.1,0-0.3,0-0.4,0.1
		c-0.1,0.1-0.2,0.2-0.3,0.3c-0.1,0.1-0.1,0.3-0.1,0.5v1.6H268.7L268.7,503.6z"/>
	<path class="st1" d="M271.6,502.2c0-0.5,0.1-0.9,0.4-1.2c0.2-0.2,0.5-0.3,0.9-0.3c0.4,0,0.7,0.1,1,0.4c0.2,0.3,0.4,0.6,0.4,1.1
		c0,0.4-0.1,0.7-0.2,0.9c-0.1,0.2-0.3,0.4-0.5,0.5c-0.2,0.1-0.4,0.2-0.7,0.2c-0.4,0-0.7-0.1-1-0.4
		C271.7,503,271.6,502.7,271.6,502.2L271.6,502.2z M272.1,502.2c0,0.4,0.1,0.6,0.2,0.8c0.2,0.2,0.4,0.3,0.6,0.3
		c0.2,0,0.4-0.1,0.6-0.3c0.2-0.2,0.2-0.5,0.2-0.8c0-0.4-0.1-0.6-0.2-0.8c-0.2-0.2-0.4-0.3-0.6-0.3c-0.2,0-0.4,0.1-0.6,0.3
		C272.1,501.5,272.1,501.8,272.1,502.2L272.1,502.2z"/>
	<path class="st1" d="M274.6,502.8l0.5-0.1c0,0.2,0.1,0.3,0.2,0.4c0.1,0.1,0.3,0.2,0.5,0.2c0.2,0,0.4,0,0.5-0.1
		c0.1-0.1,0.2-0.2,0.2-0.3c0-0.1,0-0.2-0.1-0.3c-0.1,0-0.2-0.1-0.5-0.2c-0.4-0.1-0.6-0.2-0.7-0.2c-0.1-0.1-0.2-0.2-0.3-0.3
		c-0.1-0.1-0.1-0.2-0.1-0.4c0-0.1,0-0.2,0.1-0.4c0.1-0.1,0.1-0.2,0.2-0.3c0.1-0.1,0.2-0.1,0.3-0.1c0.1,0,0.3-0.1,0.4-0.1
		c0.2,0,0.4,0,0.6,0.1c0.2,0.1,0.3,0.2,0.4,0.3c0.1,0.1,0.1,0.3,0.2,0.4l-0.5,0.1c0-0.1-0.1-0.3-0.2-0.3c-0.1-0.1-0.2-0.1-0.4-0.1
		c-0.2,0-0.4,0-0.5,0.1c-0.1,0.1-0.1,0.2-0.1,0.3c0,0.1,0,0.1,0.1,0.2c0,0.1,0.1,0.1,0.2,0.1c0,0,0.2,0.1,0.4,0.1
		c0.3,0.1,0.6,0.2,0.7,0.2c0.1,0.1,0.2,0.1,0.3,0.3c0.1,0.1,0.1,0.2,0.1,0.4c0,0.2,0,0.3-0.1,0.5c-0.1,0.1-0.2,0.3-0.4,0.3
		c-0.2,0.1-0.4,0.1-0.6,0.1c-0.4,0-0.7-0.1-0.9-0.2C274.8,503.3,274.7,503.1,274.6,502.8L274.6,502.8z"/>
	<path class="st1" d="M278.6,503.2l0.1,0.4c-0.1,0-0.3,0-0.4,0c-0.2,0-0.3,0-0.4-0.1c-0.1-0.1-0.2-0.1-0.2-0.2
		c0-0.1-0.1-0.3-0.1-0.6v-1.7h-0.4v-0.4h0.4V500l0.5-0.3v1h0.5v0.4h-0.5v1.7c0,0.1,0,0.2,0,0.3c0,0,0,0.1,0.1,0.1c0,0,0.1,0,0.2,0
		C278.5,503.2,278.6,503.2,278.6,503.2L278.6,503.2z"/>
	<path class="st1" d="M281.1,502.7l0.5,0.1c-0.1,0.3-0.2,0.5-0.4,0.7c-0.2,0.2-0.5,0.2-0.8,0.2c-0.4,0-0.7-0.1-1-0.4
		c-0.2-0.3-0.4-0.6-0.4-1.1c0-0.5,0.1-0.9,0.4-1.1c0.2-0.3,0.6-0.4,1-0.4c0.4,0,0.7,0.1,0.9,0.4c0.2,0.3,0.4,0.6,0.4,1.1
		c0,0,0,0.1,0,0.1h-2.1c0,0.3,0.1,0.6,0.3,0.7c0.2,0.2,0.4,0.3,0.6,0.3c0.2,0,0.3,0,0.5-0.1C280.9,503,281,502.9,281.1,502.7
		L281.1,502.7z M279.5,501.9h1.6c0-0.2-0.1-0.4-0.2-0.5c-0.2-0.2-0.4-0.3-0.6-0.3c-0.2,0-0.4,0.1-0.6,0.2
		C279.6,501.5,279.5,501.7,279.5,501.9L279.5,501.9z"/>
	<path class="st1" d="M284,503.6v-0.4c-0.2,0.3-0.4,0.4-0.8,0.4c-0.2,0-0.4-0.1-0.6-0.2c-0.2-0.1-0.3-0.3-0.4-0.5
		c-0.1-0.2-0.2-0.5-0.2-0.8c0-0.3,0-0.5,0.1-0.8c0.1-0.2,0.2-0.4,0.4-0.5c0.2-0.1,0.4-0.2,0.6-0.2c0.2,0,0.3,0,0.5,0.1
		c0.1,0.1,0.2,0.2,0.3,0.3v-1.4h0.5v4H284L284,503.6z M282.5,502.2c0,0.4,0.1,0.6,0.2,0.8c0.2,0.2,0.3,0.3,0.5,0.3
		c0.2,0,0.4-0.1,0.5-0.3c0.1-0.2,0.2-0.4,0.2-0.8c0-0.4-0.1-0.7-0.2-0.9c-0.2-0.2-0.3-0.3-0.6-0.3c-0.2,0-0.4,0.1-0.5,0.3
		C282.6,501.5,282.5,501.8,282.5,502.2L282.5,502.2z"/>
	<path class="st1" d="M286.6,502.8l0.5-0.1c0,0.2,0.1,0.3,0.2,0.4c0.1,0.1,0.3,0.2,0.5,0.2c0.2,0,0.4,0,0.5-0.1
		c0.1-0.1,0.2-0.2,0.2-0.3c0-0.1,0-0.2-0.1-0.3c-0.1,0-0.2-0.1-0.5-0.2c-0.4-0.1-0.6-0.2-0.7-0.2c-0.1-0.1-0.2-0.2-0.3-0.3
		c-0.1-0.1-0.1-0.2-0.1-0.4c0-0.1,0-0.2,0.1-0.4c0.1-0.1,0.1-0.2,0.2-0.3c0.1-0.1,0.2-0.1,0.3-0.1c0.1,0,0.3-0.1,0.4-0.1
		c0.2,0,0.4,0,0.6,0.1c0.2,0.1,0.3,0.2,0.4,0.3c0.1,0.1,0.1,0.3,0.2,0.4l-0.5,0.1c0-0.1-0.1-0.3-0.2-0.3c-0.1-0.1-0.2-0.1-0.4-0.1
		c-0.2,0-0.4,0-0.5,0.1c-0.1,0.1-0.1,0.2-0.1,0.3c0,0.1,0,0.1,0.1,0.2c0,0.1,0.1,0.1,0.2,0.1c0,0,0.2,0.1,0.4,0.1
		c0.3,0.1,0.6,0.2,0.7,0.2c0.1,0.1,0.2,0.1,0.3,0.3c0.1,0.1,0.1,0.2,0.1,0.4c0,0.2,0,0.3-0.1,0.5c-0.1,0.1-0.2,0.3-0.4,0.3
		c-0.2,0.1-0.4,0.1-0.6,0.1c-0.4,0-0.7-0.1-0.9-0.2C286.8,503.3,286.7,503.1,286.6,502.8L286.6,502.8z"/>
	<path class="st1" d="M291.5,502.7l0.5,0.1c-0.1,0.3-0.2,0.5-0.4,0.7c-0.2,0.2-0.5,0.2-0.8,0.2c-0.4,0-0.7-0.1-1-0.4
		c-0.2-0.3-0.4-0.6-0.4-1.1c0-0.5,0.1-0.9,0.4-1.1c0.2-0.3,0.6-0.4,1-0.4c0.4,0,0.7,0.1,0.9,0.4c0.2,0.3,0.4,0.6,0.4,1.1
		c0,0,0,0.1,0,0.1h-2.1c0,0.3,0.1,0.6,0.3,0.7c0.2,0.2,0.4,0.3,0.6,0.3c0.2,0,0.3,0,0.5-0.1C291.3,503,291.4,502.9,291.5,502.7
		L291.5,502.7z M289.9,501.9h1.6c0-0.2-0.1-0.4-0.2-0.5c-0.2-0.2-0.4-0.3-0.6-0.3c-0.2,0-0.4,0.1-0.6,0.2
		C290,501.5,289.9,501.7,289.9,501.9L289.9,501.9z"/>
	<path class="st1" d="M292.6,503.6v-2.9h0.4v0.4c0.1-0.2,0.2-0.3,0.3-0.4c0.1-0.1,0.2-0.1,0.3-0.1c0.2,0,0.3,0.1,0.5,0.2l-0.2,0.4
		c-0.1-0.1-0.2-0.1-0.4-0.1c-0.1,0-0.2,0-0.3,0.1c-0.1,0.1-0.1,0.2-0.2,0.3c-0.1,0.2-0.1,0.4-0.1,0.6v1.5H292.6L292.6,503.6z"/>
	<path class="st1" d="M295.3,503.6l-1.1-2.9h0.5l0.6,1.7c0.1,0.2,0.1,0.4,0.2,0.6c0-0.2,0.1-0.3,0.2-0.5l0.6-1.7h0.5l-1.1,2.9H295.3
		L295.3,503.6z"/>
	<path class="st1" d="M297.2,500.2v-0.6h0.5v0.6H297.2L297.2,500.2z M297.2,503.6v-2.9h0.5v2.9H297.2L297.2,503.6z"/>
	<path class="st1" d="M300.3,502.6l0.5,0.1c-0.1,0.3-0.2,0.6-0.4,0.8c-0.2,0.2-0.5,0.3-0.8,0.3c-0.4,0-0.7-0.1-0.9-0.4
		c-0.2-0.3-0.4-0.6-0.4-1.1c0-0.3,0.1-0.6,0.2-0.8c0.1-0.2,0.3-0.4,0.5-0.5c0.2-0.1,0.4-0.2,0.7-0.2c0.3,0,0.6,0.1,0.8,0.2
		c0.2,0.2,0.3,0.4,0.4,0.7l-0.5,0.1c0-0.2-0.1-0.3-0.2-0.4c-0.1-0.1-0.3-0.1-0.4-0.1c-0.2,0-0.4,0.1-0.6,0.3
		c-0.2,0.2-0.2,0.5-0.2,0.8c0,0.4,0.1,0.7,0.2,0.8c0.1,0.2,0.3,0.3,0.6,0.3c0.2,0,0.4-0.1,0.5-0.2
		C300.2,503,300.3,502.8,300.3,502.6L300.3,502.6z"/>
	<path class="st1" d="M303.2,502.7l0.5,0.1c-0.1,0.3-0.2,0.5-0.4,0.7c-0.2,0.2-0.5,0.2-0.8,0.2c-0.4,0-0.7-0.1-1-0.4
		c-0.2-0.3-0.4-0.6-0.4-1.1c0-0.5,0.1-0.9,0.4-1.1c0.2-0.3,0.6-0.4,1-0.4c0.4,0,0.7,0.1,0.9,0.4c0.2,0.3,0.4,0.6,0.4,1.1
		c0,0,0,0.1,0,0.1h-2.1c0,0.3,0.1,0.6,0.3,0.7c0.2,0.2,0.4,0.3,0.6,0.3c0.2,0,0.3,0,0.5-0.1C303,503,303.1,502.9,303.2,502.7
		L303.2,502.7z M301.6,501.9h1.6c0-0.2-0.1-0.4-0.2-0.5c-0.2-0.2-0.4-0.3-0.6-0.3c-0.2,0-0.4,0.1-0.6,0.2
		C301.7,501.5,301.6,501.7,301.6,501.9L301.6,501.9z"/>
	<path class="st1" d="M304.1,502.8l0.5-0.1c0,0.2,0.1,0.3,0.2,0.4c0.1,0.1,0.3,0.2,0.5,0.2c0.2,0,0.4,0,0.5-0.1
		c0.1-0.1,0.2-0.2,0.2-0.3c0-0.1,0-0.2-0.1-0.3c-0.1,0-0.2-0.1-0.5-0.2c-0.4-0.1-0.6-0.2-0.7-0.2c-0.1-0.1-0.2-0.2-0.3-0.3
		c-0.1-0.1-0.1-0.2-0.1-0.4c0-0.1,0-0.2,0.1-0.4c0.1-0.1,0.1-0.2,0.2-0.3c0.1-0.1,0.2-0.1,0.3-0.1c0.1,0,0.3-0.1,0.4-0.1
		c0.2,0,0.4,0,0.6,0.1c0.2,0.1,0.3,0.2,0.4,0.3c0.1,0.1,0.1,0.3,0.2,0.4l-0.5,0.1c0-0.1-0.1-0.3-0.2-0.3c-0.1-0.1-0.2-0.1-0.4-0.1
		c-0.2,0-0.4,0-0.5,0.1c-0.1,0.1-0.1,0.2-0.1,0.3c0,0.1,0,0.1,0.1,0.2c0,0.1,0.1,0.1,0.2,0.1c0,0,0.2,0.1,0.4,0.1
		c0.3,0.1,0.6,0.2,0.7,0.2c0.1,0.1,0.2,0.1,0.3,0.3c0.1,0.1,0.1,0.2,0.1,0.4c0,0.2,0,0.3-0.1,0.5c-0.1,0.1-0.2,0.3-0.4,0.3
		c-0.2,0.1-0.4,0.1-0.6,0.1c-0.4,0-0.7-0.1-0.9-0.2C304.3,503.3,304.2,503.1,304.1,502.8L304.1,502.8z"/>
	<path class="st1" d="M308.4,502.2c0-0.5,0.1-0.9,0.4-1.2c0.2-0.2,0.5-0.3,0.9-0.3c0.4,0,0.7,0.1,1,0.4c0.2,0.3,0.4,0.6,0.4,1.1
		c0,0.4-0.1,0.7-0.2,0.9c-0.1,0.2-0.3,0.4-0.5,0.5c-0.2,0.1-0.4,0.2-0.7,0.2c-0.4,0-0.7-0.1-1-0.4
		C308.5,503,308.4,502.7,308.4,502.2L308.4,502.2z M308.9,502.2c0,0.4,0.1,0.6,0.2,0.8c0.2,0.2,0.4,0.3,0.6,0.3
		c0.2,0,0.4-0.1,0.6-0.3c0.2-0.2,0.2-0.5,0.2-0.8c0-0.4-0.1-0.6-0.2-0.8c-0.2-0.2-0.4-0.3-0.6-0.3c-0.2,0-0.4,0.1-0.6,0.3
		C309,501.5,308.9,501.8,308.9,502.2L308.9,502.2z"/>
	<path class="st1" d="M312.5,503.6l-1.1-2.9h0.5l0.6,1.7c0.1,0.2,0.1,0.4,0.2,0.6c0-0.2,0.1-0.3,0.2-0.5l0.6-1.7h0.5l-1.1,2.9H312.5
		L312.5,503.6z"/>
	<path class="st1" d="M316.4,502.7l0.5,0.1c-0.1,0.3-0.2,0.5-0.4,0.7c-0.2,0.2-0.5,0.2-0.8,0.2c-0.4,0-0.7-0.1-1-0.4
		c-0.2-0.3-0.4-0.6-0.4-1.1c0-0.5,0.1-0.9,0.4-1.1c0.2-0.3,0.6-0.4,1-0.4c0.4,0,0.7,0.1,0.9,0.4c0.2,0.3,0.4,0.6,0.4,1.1
		c0,0,0,0.1,0,0.1h-2.1c0,0.3,0.1,0.6,0.3,0.7c0.2,0.2,0.4,0.3,0.6,0.3c0.2,0,0.3,0,0.5-0.1C316.2,503,316.3,502.9,316.4,502.7
		L316.4,502.7z M314.8,501.9h1.6c0-0.2-0.1-0.4-0.2-0.5c-0.2-0.2-0.4-0.3-0.6-0.3c-0.2,0-0.4,0.1-0.6,0.2
		C314.9,501.5,314.8,501.7,314.8,501.9L314.8,501.9z"/>
	<path class="st1" d="M317.5,503.6v-2.9h0.4v0.4c0.1-0.2,0.2-0.3,0.3-0.4c0.1-0.1,0.2-0.1,0.3-0.1c0.2,0,0.3,0.1,0.5,0.2l-0.2,0.4
		c-0.1-0.1-0.2-0.1-0.4-0.1c-0.1,0-0.2,0-0.3,0.1c-0.1,0.1-0.1,0.2-0.2,0.3c-0.1,0.2-0.1,0.4-0.1,0.6v1.5H317.5L317.5,503.6z"/>
	<path class="st1" d="M321.9,503.2l0.1,0.4c-0.1,0-0.3,0-0.4,0c-0.2,0-0.3,0-0.4-0.1c-0.1-0.1-0.2-0.1-0.2-0.2
		c0-0.1-0.1-0.3-0.1-0.6v-1.7h-0.4v-0.4h0.4V500l0.5-0.3v1h0.5v0.4h-0.5v1.7c0,0.1,0,0.2,0,0.3c0,0,0,0.1,0.1,0.1c0,0,0.1,0,0.2,0
		C321.8,503.2,321.8,503.2,321.9,503.2L321.9,503.2z"/>
	<path class="st1" d="M322.4,503.6v-4h0.5v1.4c0.2-0.3,0.5-0.4,0.9-0.4c0.2,0,0.4,0,0.6,0.1c0.2,0.1,0.3,0.2,0.3,0.3
		c0.1,0.1,0.1,0.4,0.1,0.6v1.8h-0.5v-1.8c0-0.2-0.1-0.4-0.2-0.5c-0.1-0.1-0.3-0.2-0.4-0.2c-0.1,0-0.3,0-0.4,0.1
		c-0.1,0.1-0.2,0.2-0.3,0.3c-0.1,0.1-0.1,0.3-0.1,0.5v1.6H322.4L322.4,503.6z"/>
	<path class="st1" d="M327.4,502.7l0.5,0.1c-0.1,0.3-0.2,0.5-0.4,0.7c-0.2,0.2-0.5,0.2-0.8,0.2c-0.4,0-0.7-0.1-1-0.4
		c-0.2-0.3-0.4-0.6-0.4-1.1c0-0.5,0.1-0.9,0.4-1.1c0.2-0.3,0.6-0.4,1-0.4c0.4,0,0.7,0.1,0.9,0.4c0.2,0.3,0.4,0.6,0.4,1.1
		c0,0,0,0.1,0,0.1h-2.1c0,0.3,0.1,0.6,0.3,0.7c0.2,0.2,0.4,0.3,0.6,0.3c0.2,0,0.3,0,0.5-0.1C327.3,503,327.4,502.9,327.4,502.7
		L327.4,502.7z M325.9,501.9h1.6c0-0.2-0.1-0.4-0.2-0.5c-0.2-0.2-0.4-0.3-0.6-0.3c-0.2,0-0.4,0.1-0.6,0.2
		C326,501.5,325.9,501.7,325.9,501.9L325.9,501.9z"/>
	<path class="st1" d="M330.1,500.2v-0.6h0.5v0.6H330.1L330.1,500.2z M330.1,503.6v-2.9h0.5v2.9H330.1L330.1,503.6z"/>
	<path class="st1" d="M331.3,503.6v-2.9h0.4v0.4c0.2-0.3,0.5-0.5,0.9-0.5c0.2,0,0.3,0,0.5,0.1c0.1,0.1,0.3,0.1,0.3,0.2
		c0.1,0.1,0.1,0.2,0.2,0.4c0,0.1,0,0.2,0,0.5v1.8h-0.5v-1.7c0-0.2,0-0.3-0.1-0.4c0-0.1-0.1-0.2-0.2-0.2c-0.1-0.1-0.2-0.1-0.3-0.1
		c-0.2,0-0.4,0.1-0.5,0.2c-0.2,0.1-0.2,0.4-0.2,0.7v1.6H331.3L331.3,503.6z"/>
	<path class="st1" d="M335.5,503.2l0.1,0.4c-0.1,0-0.3,0-0.4,0c-0.2,0-0.3,0-0.4-0.1c-0.1-0.1-0.2-0.1-0.2-0.2
		c0-0.1-0.1-0.3-0.1-0.6v-1.7h-0.4v-0.4h0.4V500l0.5-0.3v1h0.5v0.4H335v1.7c0,0.1,0,0.2,0,0.3c0,0,0,0.1,0.1,0.1c0,0,0.1,0,0.2,0
		C335.3,503.2,335.4,503.2,335.5,503.2L335.5,503.2z"/>
	<path class="st1" d="M337.9,502.7l0.5,0.1c-0.1,0.3-0.2,0.5-0.4,0.7c-0.2,0.2-0.5,0.2-0.8,0.2c-0.4,0-0.7-0.1-1-0.4
		c-0.2-0.3-0.4-0.6-0.4-1.1c0-0.5,0.1-0.9,0.4-1.1c0.2-0.3,0.6-0.4,1-0.4c0.4,0,0.7,0.1,0.9,0.4c0.2,0.3,0.4,0.6,0.4,1.1
		c0,0,0,0.1,0,0.1h-2.1c0,0.3,0.1,0.6,0.3,0.7c0.2,0.2,0.4,0.3,0.6,0.3c0.2,0,0.3,0,0.5-0.1C337.7,503,337.8,502.9,337.9,502.7
		L337.9,502.7z M336.3,501.9h1.6c0-0.2-0.1-0.4-0.2-0.5c-0.2-0.2-0.4-0.3-0.6-0.3c-0.2,0-0.4,0.1-0.6,0.2
		C336.4,501.5,336.3,501.7,336.3,501.9L336.3,501.9z"/>
	<path class="st1" d="M339,503.6v-2.9h0.4v0.4c0.1-0.2,0.2-0.3,0.3-0.4c0.1-0.1,0.2-0.1,0.3-0.1c0.2,0,0.3,0.1,0.5,0.2l-0.2,0.4
		c-0.1-0.1-0.2-0.1-0.4-0.1c-0.1,0-0.2,0-0.3,0.1s-0.1,0.2-0.2,0.3c-0.1,0.2-0.1,0.4-0.1,0.6v1.5H339L339,503.6z"/>
	<path class="st1" d="M340.8,503.6v-2.9h0.4v0.4c0.2-0.3,0.5-0.5,0.9-0.5c0.2,0,0.3,0,0.5,0.1c0.1,0.1,0.3,0.1,0.3,0.2
		c0.1,0.1,0.1,0.2,0.2,0.4c0,0.1,0,0.2,0,0.5v1.8h-0.5v-1.7c0-0.2,0-0.3-0.1-0.4c0-0.1-0.1-0.2-0.2-0.2c-0.1-0.1-0.2-0.1-0.3-0.1
		c-0.2,0-0.4,0.1-0.5,0.2c-0.2,0.1-0.2,0.4-0.2,0.7v1.6H340.8L340.8,503.6z"/>
	<path class="st1" d="M345.9,502.7l0.5,0.1c-0.1,0.3-0.2,0.5-0.4,0.7c-0.2,0.2-0.5,0.2-0.8,0.2c-0.4,0-0.7-0.1-1-0.4
		c-0.2-0.3-0.4-0.6-0.4-1.1c0-0.5,0.1-0.9,0.4-1.1c0.2-0.3,0.6-0.4,1-0.4c0.4,0,0.7,0.1,0.9,0.4c0.2,0.3,0.4,0.6,0.4,1.1
		c0,0,0,0.1,0,0.1h-2.1c0,0.3,0.1,0.6,0.3,0.7c0.2,0.2,0.4,0.3,0.6,0.3c0.2,0,0.3,0,0.5-0.1C345.7,503,345.8,502.9,345.9,502.7
		L345.9,502.7z M344.3,501.9h1.6c0-0.2-0.1-0.4-0.2-0.5c-0.2-0.2-0.4-0.3-0.6-0.3c-0.2,0-0.4,0.1-0.6,0.2
		C344.4,501.5,344.3,501.7,344.3,501.9L344.3,501.9z"/>
	<path class="st1" d="M348,503.2l0.1,0.4c-0.1,0-0.3,0-0.4,0c-0.2,0-0.3,0-0.4-0.1c-0.1-0.1-0.2-0.1-0.2-0.2c0-0.1-0.1-0.3-0.1-0.6
		v-1.7h-0.4v-0.4h0.4V500l0.5-0.3v1h0.5v0.4h-0.5v1.7c0,0.1,0,0.2,0,0.3c0,0,0,0.1,0.1,0.1c0,0,0.1,0,0.2,0
		C347.9,503.2,348,503.2,348,503.2L348,503.2z"/>
	<polygon class="st1" points="348.7,503.6 348.7,503.1 349.2,503.1 349.2,503.6 348.7,503.6 	"/>
</g>
</svg>
