<?xml version="1.0" encoding="utf-8"?>
<!-- Generator: Adobe Illustrator 16.0.0, SVG Export Plug-In . SVG Version: 6.00 Build 0)  -->
<!DOCTYPE svg PUBLIC "-//W3C//DTD SVG 1.1//EN" "http://www.w3.org/Graphics/SVG/1.1/DTD/svg11.dtd">
<svg version="1.1" id="Layer_1" xmlns="http://www.w3.org/2000/svg" xmlns:xlink="http://www.w3.org/1999/xlink" x="0px" y="0px"
	 width="335.986px" height="235.19px" viewBox="0 0 335.986 235.19" enable-background="new 0 0 335.986 235.19"
	 xml:space="preserve">
<g>
	<g>
		<rect y="-0.007" fill="#EB4C49" width="335.986" height="235.19"/>
	</g>
</g>
<g id="Email_Marketing_2_">
	<g>
		<path fill="#FFFFFF" d="M85.932,64.404c0,3.475-2.82,6.294-6.295,6.294H26.491c-3.471,0-6.29-2.819-6.29-6.294V30.141
			c0-3.473,2.819-6.293,6.29-6.293h53.146c3.475,0,6.295,2.82,6.295,6.293V64.404z"/>
		<path fill="#83CCCD" stroke="#231F20" stroke-width="2" d="M53.009,47.271L20.201,64.979c0.294,3.2,2.958,5.72,6.235,5.72h53.142
			c3.288,0,5.958-2.532,6.24-5.746L53.009,47.271z"/>
		<path fill="#83CCCD" stroke="#231F20" stroke-width="2" d="M52.819,53.434l0.245,0.131l0.248-0.131l30.774-27.689
			c-1.13-1.16-2.696-1.896-4.45-1.896H26.491c-1.756,0-3.316,0.736-4.452,1.896L52.819,53.434z"/>
	</g>
</g>
<g>
	<path fill="#F7CE21" d="M70.506,192.212c0,14.653-11.881,26.53-26.532,26.53c-14.655,0-26.538-11.877-26.538-26.53
		s11.883-26.535,26.538-26.535C58.625,165.677,70.506,177.559,70.506,192.212"/>
	<path fill="#FFFFFF" d="M64.833,192.212c0,11.518-9.344,20.857-20.859,20.857c-11.523,0-20.862-9.34-20.862-20.857
		c0-11.52,9.339-20.857,20.862-20.857C55.489,171.354,64.833,180.692,64.833,192.212"/>
	<path fill="#3F5269" stroke="#231F20" stroke-width="2" d="M43.977,172.622c-0.055,0-0.105,0.01-0.156,0.01v19.373l13.835-13.831
		C54.112,174.745,49.291,172.622,43.977,172.622"/>
	<path fill="#0E3C54" d="M62.412,192.2c0,0.668-0.54,1.206-1.208,1.206c-0.67,0-1.21-0.538-1.21-1.206c0-0.67,0.54-1.213,1.21-1.213
		C61.872,190.987,62.412,191.53,62.412,192.2"/>
	<path fill="#0E3C54" d="M27.705,192.2c0,0.668-0.544,1.206-1.211,1.206c-0.669,0-1.207-0.538-1.207-1.206
		c0-0.67,0.538-1.213,1.207-1.213C27.161,190.987,27.705,191.53,27.705,192.2"/>
	<path fill="#0E3C54" d="M43.849,208.342c0.668,0,1.208,0.546,1.208,1.213c0,0.668-0.54,1.207-1.208,1.207
		c-0.666,0-1.208-0.539-1.208-1.207C42.641,208.888,43.183,208.342,43.849,208.342"/>
</g>
<g>
	<g>
		<path fill-rule="evenodd" clip-rule="evenodd" fill="#3F5269" stroke="#231F20" stroke-width="2" d="M103.831,64.616h128.602
			c2.629,0,4.779,2.149,4.779,4.778v81.246c0,2.628-2.15,4.778-4.779,4.778H103.831c-2.629,0-4.779-2.15-4.779-4.778V69.395
			C99.052,66.766,101.202,64.616,103.831,64.616z"/>
		<rect x="106.218" y="74.098" fill-rule="evenodd" clip-rule="evenodd" fill="#FFCB31" width="123.824" height="66.472"/>
		<circle fill-rule="evenodd" clip-rule="evenodd" fill="#FFD06E" cx="168.132" cy="69.527" r="1.738"/>
		<polyline fill-rule="evenodd" clip-rule="evenodd" fill="#83CCCD" stroke="#231F20" stroke-width="2" points="237.212,155.419 
			261.208,165.627 75.056,165.627 99.052,155.419 		"/>
		<path fill-rule="evenodd" clip-rule="evenodd" fill="#3F5269" stroke="#231F20" stroke-width="2" d="M75.056,165.627h186.152
			v2.681c0,1.899-1.557,3.454-3.455,3.454H78.51c-1.899,0-3.454-1.555-3.454-3.454V165.627z"/>
		<rect x="149.331" y="167.516" fill-rule="evenodd" clip-rule="evenodd" fill="#83CCCD" width="37.603" height="2.398"/>
	</g>
</g>
<rect x="177.498" y="36.457" fill="#FFCB31" width="24.548" height="12.469"/>
<rect x="182.77" y="31.316" fill="none" stroke="#231F20" stroke-width="2" stroke-linejoin="round" stroke-miterlimit="10" width="24.548" height="12.469"/>
<g>
	<path fill-rule="evenodd" clip-rule="evenodd" fill="#FFFFFF" d="M33.949,92.871h47.773c2.254,0,4.096,1.854,4.096,4.099v40.147
		c0,2.244-1.849,4.092-4.096,4.092H33.949c-2.246,0-4.095-1.838-4.095-4.092V96.97C29.854,94.716,31.695,92.871,33.949,92.871z"/>
	<g>
		<path fill-rule="evenodd" clip-rule="evenodd" fill="#3F5269" stroke="#231F20" stroke-width="2" d="M34.317,101.812v34.038
			c0,0.488,0.401,0.895,0.894,0.895h45.247c0.492,0,0.893-0.4,0.893-0.895v-34.038c0-0.491-0.405-0.897-0.893-0.897H35.211
			C34.726,100.914,34.317,101.32,34.317,101.812z"/>
	</g>
	<linearGradient id="SVGID_1_" gradientUnits="userSpaceOnUse" x1="41.2368" y1="127.2344" x2="41.2368" y2="126.2374">
		<stop  offset="0" style="stop-color:#2C4754"/>
		<stop  offset="1" style="stop-color:#203339"/>
	</linearGradient>
	<polygon fill="url(#SVGID_1_)" points="40.449,127.319 40.449,124.891 42.024,123.175 42.024,127.319 	"/>
	<linearGradient id="SVGID_2_" gradientUnits="userSpaceOnUse" x1="65.4507" y1="117.7637" x2="65.1873" y2="117.1431">
		<stop  offset="0" style="stop-color:#2C4754"/>
		<stop  offset="1" style="stop-color:#203339"/>
	</linearGradient>
	<path fill="url(#SVGID_2_)" d="M64.767,117.83l0.914-1.202v1.202H64.767z"/>
	<linearGradient id="SVGID_3_" gradientUnits="userSpaceOnUse" x1="70.5063" y1="118.5527" x2="70.5063" y2="115.4523">
		<stop  offset="0" style="stop-color:#2C4754"/>
		<stop  offset="1" style="stop-color:#203339"/>
	</linearGradient>
	<rect x="67.369" y="116.256" fill="url(#SVGID_3_)" width="6.274" height="1.574"/>
	<path fill="#FCC100" d="M41.666,126.355c-0.508,0.505-1.342,0.505-1.85,0c-0.508-0.512-0.508-1.342,0-1.854l9.982-9.977
		c0.512-0.509,1.336-0.509,1.848,0l7.783,7.777l8.704-8.701l-4.021-4.023c-0.507-0.511-0.504-1.333,0.007-1.848
		c0.252-0.252,0.584-0.374,0.917-0.374h0.039h4.908v-0.006h4.947c0.72,0,1.307,0.587,1.307,1.31v0.029v4.918v4.94
		c0,0.724-0.587,1.31-1.307,1.31c-0.405,0-0.762-0.183-0.999-0.461l-3.948-3.947l-9.628,9.631c-0.508,0.512-1.341,0.512-1.85,0
		l-7.783-7.784L41.666,126.355z"/>
</g>
<g>
	<path fill-rule="evenodd" clip-rule="evenodd" fill="#FFFFFF" d="M253.414,92.275h47.814c2.255,0,4.099,1.854,4.099,4.102v40.182
		c0,2.246-1.851,4.096-4.099,4.096h-47.814c-2.248,0-4.099-1.84-4.099-4.096V96.377C249.315,94.121,251.158,92.275,253.414,92.275z"
		/>
	<g>
		<path fill-rule="evenodd" clip-rule="evenodd" fill="#3F5269" stroke="#231F20" stroke-width="2" d="M253.786,101.223v34.068
			c0,0.488,0.4,0.895,0.895,0.895h45.281c0.493,0,0.896-0.4,0.896-0.895v-34.068c0-0.49-0.406-0.897-0.896-0.897h-45.281
			C254.192,100.325,253.786,100.732,253.786,101.223z"/>
	</g>
	<path fill="#E3E0CF" d="M258.096,122.4c-0.311-0.311-0.311-0.811,0-1.119c0.304-0.305,0.809-0.305,1.115,0l4.701,4.707
		c0.311,0.305,0.311,0.811,0,1.113l-0.013,0.015l-4.688,4.694c-0.307,0.306-0.812,0.306-1.115,0c-0.311-0.311-0.311-0.811,0-1.115
		l4.148-4.146L258.096,122.4L258.096,122.4z M264.772,132.037h7.692c0.439,0,0.788-0.357,0.788-0.787
		c0-0.436-0.349-0.787-0.788-0.787h-7.692c-0.437,0-0.789,0.352-0.789,0.787C263.983,131.68,264.336,132.037,264.772,132.037z"/>
</g>
<path fill="#FFFFFF" d="M160.177,31.927c0,1.656-1.344,3-3,3h-52.781c-1.656,0-3-1.344-3-3v-14c0-1.656,1.344-3,3-3h52.781
	c1.656,0,3,1.344,3,3V31.927z"/>
<g>
	<path fill="#606060" d="M118.56,20.968c0,0,0.647-0.108,1.502-0.108s1.502,0.108,1.502,0.108v8.494c0,0-0.634,0.109-1.488,0.109
		c-0.923,0-1.516-0.109-1.516-0.109v-3.339h-2.122v3.339c0,0-0.661,0.109-1.502,0.109c-0.909,0-1.502-0.109-1.502-0.109v-8.494
		c0,0,0.634-0.108,1.488-0.108c0.868,0,1.516,0.108,1.516,0.108v3.122h2.122V20.968z"/>
	<path fill="#606060" d="M130.137,20.859c0,0,0.138,0.436,0.138,1.077c0,0.616-0.138,1.076-0.138,1.076h-2.301v6.449
		c0,0-0.662,0.109-1.502,0.109c-0.91,0-1.502-0.109-1.502-0.109v-6.449h-2.37c0,0-0.138-0.436-0.138-1.053
		c0-0.678,0.138-1.101,0.138-1.101H130.137z"/>
	<path fill="#606060" d="M138.297,20.859c0,0,0.138,0.436,0.138,1.077c0,0.616-0.138,1.076-0.138,1.076h-2.301v6.449
		c0,0-0.662,0.109-1.502,0.109c-0.91,0-1.502-0.109-1.502-0.109v-6.449h-2.37c0,0-0.138-0.436-0.138-1.053
		c0-0.678,0.138-1.101,0.138-1.101H138.297z"/>
	<path fill="#606060" d="M142.186,29.462c0,0-0.579,0.109-1.502,0.109s-1.502-0.109-1.502-0.109v-8.603h4.037
		c2.273,0,3.555,0.956,3.555,2.88s-1.281,2.892-3.555,2.892h-1.033V29.462z M142.765,24.695c0.564,0,0.923-0.291,0.923-0.956
		c0-0.678-0.358-0.944-0.923-0.944h-0.579v1.9H142.765z"/>
</g>
<path fill="#FFFFFF" d="M256.499,205.665c0,1.656-1.344,3-3,3h-52.781c-1.656,0-3-1.344-3-3v-14c0-1.656,1.344-3,3-3h52.781
	c1.656,0,3,1.344,3,3V205.665z"/>
<g>
	<path fill="#606060" d="M215.844,200.309c0,2.033-1.625,3.183-4.078,3.183s-4.078-1.149-4.078-3.183v-5.603
		c0,0,0.564-0.108,1.488-0.108c0.938,0,1.516,0.108,1.516,0.108v5.542c0,0.714,0.357,1.028,1.102,1.028s1.09-0.314,1.09-1.028
		v-5.542c0,0,0.537-0.108,1.459-0.108c0.924,0,1.502,0.108,1.502,0.108V200.309z"/>
	<path fill="#606060" d="M221.182,194.598c2.549,0,3.555,1.137,3.555,2.771c0,1.053-0.414,1.9-1.379,2.359l1.971,3.473
		c0,0-0.633,0.109-1.625,0.109c-1.049,0-1.641-0.109-1.641-0.109l-1.598-3.061h-0.387v3.061c0,0-0.633,0.109-1.488,0.109
		c-0.922,0-1.516-0.109-1.516-0.109v-8.603H221.182z M220.078,198.228h0.648c0.619,0,0.895-0.303,0.895-0.859
		s-0.275-0.859-0.895-0.859h-0.648V198.228z"/>
	<path fill="#606060" d="M225.938,194.706c0,0,0.633-0.108,1.488-0.108c0.867,0,1.516,0.108,1.516,0.108v6.595h3.678
		c0.098,0.303,0.139,0.653,0.139,1.005c0,0.339-0.055,0.689-0.139,1.004h-6.682V194.706z"/>
	<path fill="#606060" d="M236.191,199.389c0,0-0.51,0.098-1.42,0.098c-0.908,0-1.418-0.098-1.418-0.098v-2.347
		c0,0,0.496-0.097,1.418-0.097c0.91,0,1.42,0.097,1.42,0.097V199.389z M236.191,203.213c0,0-0.51,0.097-1.42,0.097
		c-0.908,0-1.418-0.097-1.418-0.097v-2.348c0,0,0.496-0.097,1.418-0.097c0.91,0,1.42,0.097,1.42,0.097V203.213z"/>
	<path fill="#606060" d="M241.484,194.344c0,0,0.646-0.109,1.461-0.109c0.84,0,1.486,0.109,1.486,0.109l-4.588,9.426
		c0,0-0.646,0.108-1.461,0.108c-0.84,0-1.486-0.108-1.486-0.108L241.484,194.344z"/>
	<path fill="#606060" d="M246.295,194.344c0,0,0.646-0.109,1.461-0.109c0.84,0,1.486,0.109,1.486,0.109l-4.588,9.426
		c0,0-0.646,0.108-1.461,0.108c-0.84,0-1.486-0.108-1.486-0.108L246.295,194.344z"/>
</g>
<g>
	<g>
		<path fill="#3F5269" stroke="#231F20" stroke-width="2" d="M289.602,40.997l0.004-7.37l-4.396-0.94
			c-0.225-0.904-0.498-1.787-0.825-2.646l3.302-2.979l-3.686-6.384l-4.551,1.471c-0.584-0.613-1.193-1.198-1.834-1.746l1.44-4.456
			l-6.382-3.686l-3.246,3.593c-0.791-0.25-1.596-0.455-2.422-0.623l-0.98-4.59h-7.371l-0.984,4.59
			c-0.871,0.174-1.725,0.405-2.56,0.674l-3.027-3.349l-6.382,3.686l1.348,4.171c-0.748,0.639-1.445,1.332-2.107,2.059l-3.971-1.283
			l-3.686,6.381l2.941,2.655c-0.383,1.044-0.714,2.112-0.947,3.22l-3.613,0.775l-0.004,7.367l3.46,0.741
			c0.21,1.239,0.515,2.446,0.912,3.613l-2.452,2.216l3.686,6.381l3.062-0.989c0.858,1.017,1.802,1.96,2.82,2.818l-0.941,2.902
			l6.385,3.683l2.096-2.318c1.263,0.43,2.568,0.752,3.915,0.968l0.638,2.978h7.367l0.684-3.183c1.281-0.278,2.523-0.665,3.719-1.139
			l2.167,2.399l6.384-3.68l-1.115-3.449c0.866-0.811,1.672-1.681,2.406-2.611l3.439,1.112l3.684-6.38l-3.008-2.722
			c0.289-0.998,0.505-2.026,0.662-3.077L289.602,40.997z M271.443,38.343c0,5.029-4.076,9.103-9.104,9.103
			c-5.029,0-9.104-4.073-9.104-9.103s4.074-9.104,9.104-9.104C267.367,29.239,271.443,33.313,271.443,38.343z"/>
		<path fill="#FFFFFF" stroke="#231F20" stroke-width="2" stroke-linejoin="round" stroke-miterlimit="10" d="M262.339,50.261
			c-6.584,0-11.919-5.335-11.919-11.918c0-6.582,5.335-11.916,11.919-11.916c6.582,0,11.916,5.334,11.916,11.916
			C274.255,44.926,268.921,50.261,262.339,50.261z"/>
	</g>
</g>
<g>
	<g>
		<path fill="#FFCB31" stroke="#231F20" stroke-width="2" d="M318.978,66.771l0.003-4.772l-2.847-0.608
			c-0.145-0.585-0.322-1.157-0.533-1.714l2.137-1.929l-2.385-4.134l-2.947,0.952c-0.379-0.397-0.773-0.775-1.188-1.13l0.933-2.886
			l-4.133-2.387l-2.102,2.327c-0.513-0.162-1.034-0.295-1.568-0.404l-0.635-2.972h-4.772l-0.639,2.972
			c-0.562,0.113-1.115,0.263-1.656,0.437l-1.96-2.168l-4.133,2.386l0.874,2.701c-0.484,0.414-0.938,0.862-1.365,1.333l-2.571-0.831
			l-2.388,4.132l1.905,1.72c-0.247,0.676-0.462,1.367-0.613,2.084l-2.339,0.502l-0.003,4.771l2.24,0.479
			c0.136,0.803,0.333,1.584,0.591,2.34l-1.588,1.436l2.387,4.131l1.982-0.641c0.555,0.658,1.167,1.27,1.826,1.825l-0.609,1.88
			l4.134,2.384l1.357-1.501c0.817,0.278,1.663,0.486,2.535,0.627l0.413,1.928h4.77l0.443-2.061c0.829-0.181,1.634-0.431,2.407-0.737
			l1.403,1.554l4.134-2.383l-0.723-2.233c0.562-0.524,1.083-1.089,1.559-1.69l2.227,0.72l2.386-4.131l-1.948-1.763
			c0.188-0.646,0.327-1.312,0.429-1.992L318.978,66.771z M307.22,65.054c0,3.256-2.639,5.894-5.895,5.894s-5.895-2.638-5.895-5.894
			c0-3.257,2.639-5.895,5.895-5.895S307.22,61.797,307.22,65.054z"/>
		<path fill="#FFFFFF" stroke="#231F20" stroke-width="2" stroke-linejoin="round" stroke-miterlimit="10" d="M301.325,72.771
			c-4.264,0-7.718-3.455-7.718-7.717c0-4.263,3.454-7.717,7.718-7.717c4.262,0,7.716,3.454,7.716,7.717
			C309.041,69.315,305.587,72.771,301.325,72.771z"/>
	</g>
</g>
<g>
	<path fill="#3F5269" stroke="#231F20" stroke-width="2" d="M167.99,83.115c-14.599,0-27.313,9.691-34.003,24.027
		c6.689,14.336,19.404,24.022,34.003,24.022c14.602,0,27.324-9.687,34.009-24.022C195.314,92.807,182.592,83.115,167.99,83.115z"/>
	<g>
		<defs>
			<path id="SVGID_4_" d="M167.99,94.019c-14.599,0-27.313,5.293-34.003,13.124c6.689,7.828,19.404,13.119,34.003,13.119
				c14.602,0,27.324-5.291,34.009-13.119C195.314,99.312,182.592,94.019,167.99,94.019z"/>
		</defs>
		<use xlink:href="#SVGID_4_"  overflow="visible" fill="#FFFFFF"/>
		<clipPath id="SVGID_5_">
			<use xlink:href="#SVGID_4_"  overflow="visible"/>
		</clipPath>
		<path clip-path="url(#SVGID_5_)" fill="#01C6DA" d="M189.677,107.137c0,11.979-9.707,21.687-21.687,21.687
			c-11.972,0-21.681-9.707-21.681-21.687c0-11.976,9.709-21.678,21.681-21.678C179.97,85.459,189.677,95.161,189.677,107.137z"/>
		<path clip-path="url(#SVGID_5_)" fill="#10303F" d="M180.681,107.137c0,7.012-5.678,12.69-12.69,12.69
			c-7.005,0-12.683-5.679-12.683-12.69c0-7.006,5.678-12.688,12.683-12.688C175.003,94.448,180.681,100.131,180.681,107.137z"/>
	</g>
	<path fill="#FFFFFF" d="M184.14,104.744c-1.615,2.122-4.648,2.532-6.763,0.92c-2.125-1.62-2.534-4.648-0.923-6.768
		c1.615-2.121,4.644-2.529,6.768-0.916C185.343,99.593,185.755,102.625,184.14,104.744z"/>
	<path fill="#FFFFFF" d="M179.725,112.442c-0.733,0.962-2.114,1.146-3.081,0.416c-0.962-0.732-1.151-2.114-0.414-3.072
		c0.731-0.966,2.108-1.153,3.07-0.421C180.267,110.101,180.456,111.476,179.725,112.442z"/>
</g>
<g>
	<rect x="96.185" y="185.689" fill="#3D3D3D" width="75.606" height="35.169"/>
	<g>
		<path fill="#83CCCD" d="M161.687,191.145c-0.395-0.384-1.167-0.697-1.717-0.697h-24.98c-0.55,0-1.45,0-2,0h-25.311
			c-0.55,0-1.319,0.317-1.71,0.704l-4.244,4.21c-0.391,0.387-0.71,1.154-0.71,1.704v12.214c0,0.55,0.322,1.313,0.717,1.697
			l4.559,4.426c0.395,0.384,1.167,0.697,1.717,0.697h24.982c0.55,0,1.45,0,2,0h25.308c0.55,0,1.319-0.317,1.71-0.704l4.245-4.211
			c0.391-0.387,0.71-1.154,0.71-1.704v-12.214c0-0.55-0.322-1.313-0.717-1.696L161.687,191.145z"/>
	</g>
	<circle fill="#3D3D3D" cx="133.989" cy="203.271" r="15.518"/>
	<path fill="#FFFFFF" d="M143.886,203.272c0,5.466-4.431,9.899-9.896,9.899c-5.467,0-9.898-4.434-9.898-9.899
		c0-5.464,4.432-9.897,9.898-9.897C139.455,193.375,143.886,197.809,143.886,203.272z"/>
</g>
<path fill="#83CCCD" stroke="#231F20" stroke-width="2" d="M294.276,157.888c-10.789,0-19.542,8.751-19.542,19.544
	c0,10.79,19.542,34.201,19.542,34.201s19.539-23.411,19.539-34.201C313.815,166.639,305.069,157.888,294.276,157.888z"/>
<path fill="#FAFAFA" d="M304.05,177.656c0,5.396-4.379,9.768-9.773,9.768c-5.396,0-9.775-4.372-9.775-9.768
	c0-5.396,4.379-9.773,9.775-9.773C299.671,167.883,304.05,172.26,304.05,177.656"/>
</svg>
